<svg width="557" height="535" viewBox="0 0 557 535" fill="none" xmlns="http://www.w3.org/2000/svg">
<path d="M527.477 244.331C527.474 246.241 527.073 248.132 526.298 249.893C525.523 251.655 524.388 253.251 522.961 254.59C521.533 255.929 519.841 256.984 517.983 257.692C516.125 258.401 514.137 258.75 512.137 258.719H509.387V278.594C509.274 282.337 507.638 285.891 504.825 288.501C502.013 291.111 498.245 292.571 494.323 292.571C490.401 292.571 486.634 291.111 483.821 288.501C481.008 285.891 479.372 282.337 479.26 278.594V258.719H392.926C389.516 258.839 386.187 257.715 383.615 255.575C382.027 254.437 380.698 253.002 379.708 251.359C378.719 249.715 378.09 247.896 377.859 246.013C377.628 244.13 377.801 242.222 378.366 240.404C378.932 238.587 379.879 236.898 381.149 235.441L482.491 115.131C482.775 115.131 482.775 114.872 483.046 114.613C483.379 114.308 483.658 113.954 483.872 113.565C484.394 113.422 484.866 113.15 485.241 112.776C485.512 112.517 486.055 112.258 486.338 111.987C486.818 111.66 487.39 111.48 487.979 111.469C488.25 110.951 488.521 110.68 489.076 110.68C489.347 110.421 489.89 110.421 490.716 110.162C491.103 110.2 491.491 110.109 491.814 109.903H496.512C496.933 110.113 497.408 110.203 497.881 110.162C498.165 110.421 498.979 110.421 499.533 110.68C499.805 110.68 500.36 110.951 500.631 110.951C501.174 111.469 501.716 111.728 501.987 111.987C502.542 112.258 502.814 112.517 503.369 112.776C503.441 112.776 503.51 112.803 503.56 112.852C503.611 112.9 503.64 112.966 503.64 113.035C503.911 113.035 504.466 113.294 504.466 113.565L505.551 114.613C505.835 114.872 506.106 115.39 506.378 115.649C506.792 116.045 507.16 116.483 507.475 116.956C507.539 117.352 507.734 117.719 508.03 118.004C508.251 118.516 508.433 119.043 508.573 119.581C508.573 119.84 508.844 120.358 508.844 120.617C509.088 121.109 509.182 121.655 509.115 122.195C509.115 122.713 509.387 122.972 509.387 123.502V229.942H512.137C516.164 229.923 520.037 231.425 522.91 234.12C525.784 236.815 527.425 240.485 527.477 244.331ZM479.248 165.348L424.741 229.942H479.248V165.348Z" fill="#525560" fill-opacity="0.8"/>
<path d="M191.747 195.62L194.534 180.701C194.915 178.653 194.428 176.544 193.182 174.838C191.936 173.132 190.032 171.967 187.887 171.6C185.74 171.237 183.53 171.703 181.743 172.895C179.955 174.087 178.737 175.908 178.355 177.958L175.568 192.864C175.187 194.914 175.673 197.024 176.919 198.732C178.165 200.441 180.069 201.608 182.215 201.978C184.362 202.341 186.572 201.875 188.359 200.683C190.147 199.49 191.365 197.669 191.747 195.62Z" fill="#642AB6" fill-opacity="0.6"/>
<path d="M380.966 199.081L378.697 184.081C378.543 183.061 378.18 182.08 377.628 181.194C377.077 180.308 376.348 179.535 375.483 178.918C374.618 178.301 373.635 177.853 372.589 177.599C371.543 177.346 370.454 177.292 369.386 177.44C368.318 177.587 367.291 177.934 366.363 178.46C365.435 178.987 364.625 179.683 363.979 180.508C363.333 181.334 362.864 182.273 362.598 183.272C362.333 184.271 362.276 185.31 362.431 186.33L364.688 201.318C365.002 203.38 366.16 205.238 367.908 206.486C369.656 207.733 371.851 208.267 374.011 207.971C376.167 207.671 378.11 206.566 379.414 204.9C380.718 203.233 381.276 201.14 380.966 199.081Z" fill="#642AB6" fill-opacity="0.6"/>
<path d="M218.753 140.81L224.981 135.252C226.574 133.832 227.511 131.866 227.587 129.787C227.664 127.707 226.873 125.684 225.388 124.161C223.898 122.639 221.837 121.744 219.657 121.671C217.477 121.598 215.356 122.354 213.759 123.772L207.531 129.33C206.742 130.033 206.105 130.878 205.658 131.816C205.211 132.754 204.962 133.767 204.926 134.797C204.889 135.828 205.065 136.854 205.445 137.819C205.824 138.784 206.399 139.669 207.137 140.421C208.624 141.942 210.683 142.837 212.861 142.91C215.039 142.983 217.158 142.228 218.753 140.81Z" fill="#642AB6" fill-opacity="0.6"/>
<path d="M227.472 264.511L221.664 258.624C220.927 257.869 220.042 257.26 219.059 256.832C218.076 256.404 217.014 256.165 215.934 256.129C214.854 256.093 213.777 256.261 212.765 256.622C211.753 256.984 210.825 257.532 210.035 258.236C208.444 259.657 207.508 261.624 207.434 263.703C207.36 265.783 208.154 267.806 209.64 269.327L215.449 275.285C216.94 276.805 219.001 277.698 221.181 277.769C223.361 277.839 225.482 277.082 227.077 275.662C227.874 274.957 228.517 274.108 228.969 273.165C229.421 272.221 229.672 271.202 229.709 270.165C229.746 269.128 229.567 268.095 229.183 267.125C228.799 266.154 228.217 265.266 227.472 264.511Z" fill="#642AB6" fill-opacity="0.6"/>
<path d="M368.876 156.206L357.649 140.829C356.808 139.677 355.148 139.394 353.941 140.197L344.826 146.264C343.619 147.067 343.323 148.652 344.164 149.805L355.391 165.182C356.232 166.334 357.892 166.617 359.099 165.814L368.214 159.747C369.421 158.944 369.717 157.359 368.876 156.206Z" fill="#642AB6" fill-opacity="0.6"/>
<path d="M310.724 292.287L318.739 289.52C319.754 289.17 320.687 288.633 321.484 287.938C322.281 287.244 322.927 286.407 323.385 285.474C323.843 284.541 324.104 283.532 324.154 282.503C324.203 281.473 324.039 280.445 323.672 279.476C323.306 278.508 322.743 277.617 322.016 276.856C321.289 276.095 320.412 275.478 319.435 275.041C318.458 274.603 317.4 274.354 316.323 274.307C315.245 274.26 314.168 274.416 313.153 274.767L305.138 277.534C303.089 278.246 301.42 279.704 300.496 281.588C299.571 283.473 299.466 285.631 300.205 287.589C300.953 289.54 302.479 291.129 304.45 292.009C306.421 292.889 308.676 292.989 310.724 292.287Z" fill="#642AB6" fill-opacity="0.6"/>
<path d="M294.863 289.917C346.475 281.343 381.035 234.444 372.055 185.164C363.075 135.885 313.955 102.887 262.343 111.461C210.731 120.035 176.171 166.935 185.151 216.214C194.131 265.493 243.25 298.491 294.863 289.917Z" fill="#642AB6" fill-opacity="0.6"/>
<path opacity="0.2" d="M269.61 132.156C272.416 135.592 273.99 139.798 274.099 144.154C274.25 148.612 273.125 153.025 270.844 156.917C268.543 160.973 264.697 164.029 260.103 165.454C255.707 166.762 250.97 166.55 246.723 164.853C250.92 164.974 255.092 164.193 258.931 162.569C260.708 161.789 262.327 160.717 263.716 159.402C265.119 158.112 266.305 156.622 267.23 154.986C267.699 154.162 268.168 153.291 268.587 152.419C269.006 151.548 269.364 150.641 269.623 149.723C270.25 147.892 270.664 146.001 270.856 144.083C271.255 140.068 270.832 136.017 269.61 132.156Z" fill="#2B2A30"/>
<path opacity="0.2" d="M244.736 155.045C242.577 152.802 241.316 149.905 241.172 146.862C240.963 143.732 241.708 140.611 243.318 137.878C244.124 136.446 245.221 135.182 246.544 134.159C247.868 133.136 249.391 132.375 251.025 131.92C254.122 131.059 257.446 131.367 260.311 132.78C257.489 132.927 254.726 133.612 252.185 134.793C249.96 135.936 248.134 137.675 246.931 139.797C244.248 144.445 243.466 149.878 244.736 155.045Z" fill="#642AB6" fill-opacity="0.8"/>
<path opacity="0.2" d="M279.019 254.95C280.2 256.809 280.637 259.013 280.252 261.155C279.885 263.369 278.818 265.424 277.194 267.042C276.369 267.899 275.371 268.588 274.261 269.067C273.15 269.547 271.95 269.807 270.732 269.833C268.445 269.886 266.219 269.131 264.479 267.714C266.465 268.01 268.491 267.967 270.46 267.584C272.202 267.196 273.78 266.313 274.986 265.053C276.276 263.767 277.286 262.25 277.958 260.59C278.656 258.784 279.015 256.875 279.019 254.95Z" fill="#2B2A30"/>
<path opacity="0.2" d="M266.095 264.582C265.107 263.356 264.664 261.808 264.862 260.273C265.067 258.673 265.807 257.178 266.97 256.01C267.569 255.393 268.297 254.901 269.105 254.567C269.914 254.232 270.787 254.062 271.669 254.067C272.477 254.075 273.276 254.24 274.016 254.551C274.756 254.863 275.422 255.315 275.973 255.881C274.612 255.832 273.252 255.982 271.94 256.328C270.883 256.648 269.931 257.224 269.178 258C267.421 259.811 266.337 262.124 266.095 264.582Z" fill="#2B2A30"/>
<path opacity="0.2" d="M220.799 231.296C221.932 231.446 223.022 231.814 224.001 232.379C224.981 232.944 225.83 233.693 226.496 234.581C227.224 235.541 227.743 236.631 228.022 237.785C228.302 238.94 228.336 240.136 228.124 241.304C227.905 242.501 227.399 243.634 226.646 244.615C225.893 245.595 224.913 246.396 223.783 246.956C221.797 248.003 219.493 248.365 217.26 247.98C218.911 246.945 220.455 245.762 221.872 244.448C222.999 243.422 223.759 242.083 224.042 240.621C224.312 239.103 224.18 237.545 223.66 236.088C222.991 234.351 222.024 232.731 220.799 231.296Z" fill="#2B2A30"/>
<path opacity="0.2" d="M216.422 244.919C215.586 244.928 214.758 244.752 214.005 244.404C213.252 244.057 212.594 243.548 212.081 242.917C211.513 242.233 211.103 241.442 210.878 240.595C210.652 239.749 210.617 238.867 210.774 238.007C210.936 237.114 211.321 236.271 211.896 235.549C212.472 234.828 213.22 234.25 214.079 233.862C214.81 233.516 215.607 233.311 216.422 233.26C217.237 233.21 218.054 233.314 218.827 233.568C217.816 234.44 216.868 235.376 215.99 236.37C215.393 237.041 215 237.856 214.856 238.725C214.692 239.636 214.717 240.568 214.93 241.469C215.25 242.681 215.753 243.843 216.422 244.919Z" fill="#2B2A30"/>
<path opacity="0.2" d="M327.84 140.092C328.584 140.926 329.142 141.895 329.482 142.942C329.821 143.988 329.934 145.09 329.813 146.179C329.69 147.357 329.322 148.5 328.728 149.539C328.135 150.579 327.33 151.494 326.36 152.231C325.361 152.984 324.195 153.508 322.951 153.763C321.706 154.018 320.417 153.998 319.183 153.703C316.969 153.224 314.996 152.03 313.597 150.324C315.548 150.596 317.521 150.691 319.491 150.606C321.045 150.562 322.544 150.047 323.77 149.135C325.035 148.173 326.024 146.921 326.644 145.496C327.356 143.771 327.76 141.944 327.84 140.092Z" fill="#2B2A30"/>
<path opacity="0.2" d="M315.088 147.509C314.458 146.985 313.963 146.328 313.642 145.591C313.321 144.854 313.183 144.056 313.239 143.259C313.293 142.385 313.541 141.532 313.966 140.757C314.391 139.982 314.984 139.301 315.705 138.761C316.445 138.196 317.316 137.809 318.245 137.632C319.175 137.456 320.135 137.496 321.045 137.749C322.638 138.17 323.99 139.178 324.806 140.551C323.444 140.56 322.084 140.658 320.736 140.845C319.835 140.963 318.984 141.308 318.27 141.846C317.51 142.42 316.877 143.133 316.408 143.942C315.795 145.066 315.351 146.267 315.088 147.509Z" fill="#2B2A30"/>
<path d="M304.582 217.838C308.658 217.105 312.414 215.235 315.376 212.464C318.338 209.692 320.372 206.145 321.222 202.269C322.072 198.394 321.699 194.365 320.151 190.692C318.602 187.019 315.947 183.867 312.522 181.635C309.098 179.403 305.056 178.19 300.909 178.151C296.763 178.112 292.697 179.249 289.227 181.416C285.757 183.584 283.037 186.685 281.414 190.328C279.79 193.971 279.334 197.993 280.104 201.883C281.136 207.097 284.294 211.707 288.884 214.699C293.474 217.69 299.121 218.819 304.582 217.838Z" fill="#642AB6" fill-opacity="0.6"/>
<path opacity="0.1" d="M304.582 217.838C308.658 217.105 312.414 215.235 315.376 212.464C318.338 209.692 320.372 206.145 321.222 202.269C322.072 198.394 321.699 194.365 320.151 190.692C318.602 187.019 315.947 183.867 312.522 181.635C309.098 179.403 305.056 178.19 300.909 178.151C296.763 178.112 292.697 179.249 289.227 181.416C285.757 183.584 283.037 186.685 281.414 190.328C279.79 193.971 279.334 197.993 280.104 201.883C281.136 207.097 284.294 211.707 288.884 214.699C293.474 217.69 299.121 218.819 304.582 217.838Z" fill="#2B2A30"/>
<path opacity="0.2" d="M303.04 185.022C305.977 184.482 309.007 184.616 311.88 185.412C314.752 186.208 317.386 187.645 319.564 189.603C318.059 186.555 315.772 183.919 312.916 181.94C310.06 179.961 306.727 178.702 303.226 178.281C299.724 177.859 296.168 178.288 292.887 179.529C289.606 180.769 286.705 182.78 284.455 185.375C282.204 187.97 280.676 191.066 280.013 194.376C279.349 197.685 279.571 201.101 280.658 204.307C281.746 207.512 283.663 210.404 286.232 212.714C288.802 215.023 291.94 216.676 295.357 217.52C292.389 215.416 290.126 212.536 288.841 209.227C287.556 205.919 287.305 202.325 288.118 198.883C288.932 195.441 290.776 192.299 293.424 189.838C296.073 187.378 299.414 185.704 303.04 185.022Z" fill="#642AB6" fill-opacity="0.8"/>
<path opacity="0.2" d="M326.435 185.022C329.707 189.336 331.507 194.509 331.589 199.835C331.711 205.268 330.31 210.634 327.532 215.377C324.745 220.297 320.103 224.022 314.547 225.797C309.203 227.435 303.435 227.298 298.183 225.408C303.384 225.722 308.591 224.871 313.388 222.924C314.501 222.414 315.584 221.844 316.631 221.217C317.64 220.557 318.585 219.812 319.455 218.991C321.241 217.38 322.748 215.508 323.919 213.446C324.511 212.398 325.09 211.315 325.608 210.22C326.126 209.125 326.57 207.994 326.842 206.84C327.612 204.546 328.109 202.176 328.321 199.776C328.759 194.786 328.117 189.765 326.435 185.022Z" fill="#2B2A30"/>
<path d="M349.828 178.77C351.274 178.227 352.518 177.285 353.402 176.065C354.286 174.845 354.771 173.402 354.795 171.919C354.819 170.435 354.381 168.979 353.537 167.733C352.693 166.488 351.48 165.51 350.052 164.924C348.625 164.338 347.047 164.169 345.52 164.441C343.992 164.712 342.583 165.41 341.472 166.447C340.361 167.484 339.597 168.813 339.278 170.264C338.958 171.716 339.098 173.226 339.679 174.602C340.058 175.513 340.621 176.343 341.337 177.045C342.052 177.748 342.906 178.308 343.848 178.695C344.791 179.083 345.804 179.288 346.83 179.301C347.856 179.314 348.875 179.134 349.828 178.77Z" fill="#642AB6" fill-opacity="0.6"/>
<path opacity="0.1" d="M349.828 178.77C351.274 178.227 352.518 177.285 353.402 176.065C354.286 174.845 354.771 173.402 354.795 171.919C354.819 170.435 354.381 168.979 353.537 167.733C352.693 166.488 351.48 165.51 350.052 164.924C348.625 164.338 347.047 164.169 345.52 164.441C343.992 164.712 342.583 165.41 341.472 166.447C340.361 167.484 339.597 168.813 339.278 170.264C338.958 171.716 339.098 173.226 339.679 174.602C340.058 175.513 340.621 176.343 341.337 177.045C342.052 177.748 342.906 178.308 343.848 178.695C344.791 179.083 345.804 179.288 346.83 179.301C347.856 179.314 348.875 179.134 349.828 178.77Z" fill="#2B2A30"/>
<path opacity="0.2" d="M346.818 166.867C347.852 166.467 348.971 166.309 350.082 166.406C351.193 166.502 352.264 166.85 353.206 167.42C352.426 166.413 351.393 165.61 350.203 165.085C349.012 164.56 347.702 164.33 346.394 164.415C345.086 164.501 343.821 164.9 342.717 165.576C341.613 166.252 340.705 167.182 340.077 168.281C339.449 169.38 339.121 170.613 339.123 171.865C339.126 173.117 339.458 174.349 340.091 175.445C340.723 176.542 341.635 177.469 342.742 178.141C343.848 178.813 345.115 179.207 346.423 179.289C345.18 178.72 344.136 177.819 343.419 176.694C342.701 175.57 342.342 174.271 342.384 172.955C342.426 171.639 342.867 170.363 343.654 169.282C344.441 168.201 345.54 167.362 346.818 166.867Z" fill="#2B2A30"/>
<path opacity="0.2" d="M355.388 165.289C356.996 166.594 358.117 168.362 358.582 170.328C359.074 172.34 358.976 174.442 358.298 176.404C357.631 178.452 356.153 180.171 354.18 181.196C352.291 182.16 350.103 182.444 348.014 181.996C349.912 181.666 351.712 180.947 353.292 179.889C354.715 178.854 355.767 177.422 356.301 175.791C356.89 174.071 357.113 172.256 356.956 170.452C356.8 168.648 356.266 166.893 355.388 165.289Z" fill="#2B2A30"/>
<path d="M334.721 247.921C336.587 246.819 338.069 245.214 338.98 243.309C339.891 241.403 340.19 239.282 339.84 237.215C339.489 235.147 338.504 233.225 337.01 231.691C335.516 230.157 333.579 229.081 331.444 228.597C329.309 228.114 327.073 228.246 325.016 228.976C322.96 229.706 321.176 231.001 319.89 232.699C318.605 234.396 317.875 236.419 317.793 238.512C317.711 240.606 318.281 242.675 319.43 244.46C320.194 245.647 321.197 246.678 322.38 247.495C323.563 248.312 324.903 248.898 326.323 249.219C327.744 249.541 329.217 249.592 330.658 249.369C332.099 249.146 333.48 248.654 334.721 247.921Z" fill="#642AB6" fill-opacity="0.6"/>
<path opacity="0.1" d="M334.721 247.921C336.587 246.819 338.069 245.214 338.98 243.309C339.891 241.403 340.19 239.282 339.84 237.215C339.489 235.147 338.504 233.225 337.01 231.691C335.516 230.157 333.579 229.081 331.444 228.597C329.309 228.114 327.073 228.246 325.016 228.976C322.96 229.706 321.176 231.001 319.89 232.699C318.605 234.396 317.875 236.419 317.793 238.512C317.711 240.606 318.281 242.675 319.43 244.46C320.194 245.647 321.197 246.678 322.38 247.495C323.563 248.312 324.903 248.898 326.323 249.219C327.744 249.541 329.217 249.592 330.658 249.369C332.099 249.146 333.48 248.654 334.721 247.921Z" fill="#2B2A30"/>
<path opacity="0.2" d="M327.434 231.955C328.781 231.157 330.307 230.675 331.887 230.551C333.467 230.426 335.056 230.661 336.522 231.237C335.174 230.008 333.523 229.123 331.722 228.664C329.921 228.205 328.027 228.187 326.217 228.61C324.406 229.034 322.737 229.886 321.362 231.089C319.988 232.291 318.953 233.804 318.352 235.489C317.752 237.174 317.606 238.976 317.927 240.73C318.248 242.483 319.027 244.13 320.191 245.521C321.355 246.911 322.867 247.998 324.588 248.683C326.308 249.368 328.182 249.628 330.035 249.44C328.15 248.933 326.46 247.915 325.168 246.509C323.877 245.104 323.04 243.371 322.759 241.52C322.479 239.669 322.766 237.781 323.587 236.083C324.408 234.385 325.727 232.951 327.384 231.955H327.434Z" fill="#2B2A30"/>
<path opacity="0.2" d="M339.012 227.74C341.47 229.3 343.371 231.539 344.463 234.157C345.592 236.816 345.962 239.713 345.535 242.552C345.127 245.478 343.582 248.151 341.207 250.041C338.892 251.815 336.024 252.801 333.056 252.843C335.706 252.084 338.129 250.732 340.122 248.899C341.972 247.101 343.15 244.771 343.476 242.27C343.881 239.728 343.7 237.132 342.946 234.664C342.16 232.117 340.819 229.758 339.012 227.74Z" fill="#642AB6" fill-opacity="0.8"/>
<path d="M231.615 191.063C231.862 199.234 224.216 206.087 214.561 206.369C204.905 206.652 196.852 200.235 196.593 192.087C196.334 183.939 203.992 177.063 213.636 176.781C223.279 176.498 231.381 182.88 231.615 191.063Z" fill="#642AB6" fill-opacity="0.6"/>
<path opacity="0.1" d="M231.615 191.063C231.862 199.234 224.216 206.087 214.561 206.369C204.905 206.652 196.852 200.235 196.593 192.087C196.334 183.939 203.992 177.063 213.636 176.781C223.279 176.498 231.381 182.88 231.615 191.063Z" fill="#2B2A30"/>
<path opacity="0.2" d="M203.35 195.372C203.458 197.556 204.143 199.679 205.342 201.542C206.541 203.406 208.214 204.949 210.206 206.028C202.585 204.615 196.789 198.963 196.58 192.052C196.321 183.88 203.979 177.028 213.634 176.745C216.811 176.589 219.973 177.249 222.792 178.654C225.611 180.06 227.985 182.162 229.666 184.74C226.545 182.482 222.701 181.329 218.789 181.478C210.058 181.726 203.115 187.954 203.35 195.372Z" fill="#2B2A30"/>
<path opacity="0.2" d="M229.532 178.664C231.574 179.459 233.429 180.634 234.992 182.119C236.554 183.605 237.792 185.372 238.633 187.318C239.541 189.351 239.962 191.551 239.866 193.759C239.772 195.965 239.267 198.139 238.374 200.176C237.361 202.173 235.968 203.974 234.267 205.486C232.612 206.937 230.726 208.129 228.681 209.018C224.76 210.763 220.462 211.594 216.14 211.444C220.024 210.198 223.747 208.535 227.238 206.487C230.509 204.64 233.155 201.935 234.859 198.692C235.604 197.067 236.066 195.337 236.228 193.57C236.453 191.797 236.323 189.999 235.846 188.272C234.71 184.574 232.525 181.249 229.532 178.664Z" fill="#642AB6" fill-opacity="0.8"/>
<path d="M178.652 244.33C178.649 246.241 178.248 248.132 177.473 249.893C176.697 251.654 175.563 253.251 174.135 254.59C172.708 255.929 171.016 256.983 169.157 257.692C167.299 258.401 165.312 258.75 163.311 258.718H160.573V278.593C160.461 282.337 158.825 285.891 156.012 288.5C153.2 291.11 149.432 292.57 145.51 292.57C141.588 292.57 137.821 291.11 135.008 288.5C132.195 285.891 130.559 282.337 130.447 278.593V258.718H44.1247C40.7155 258.839 37.3863 257.715 34.8143 255.575C33.2262 254.436 31.897 253.002 30.9075 251.358C29.918 249.714 29.2888 247.896 29.0582 246.013C28.8275 244.13 29.0002 242.221 29.5657 240.404C30.1312 238.586 31.0778 236.898 32.3479 235.44L133.69 115.13C133.974 115.13 133.974 114.871 134.245 114.612C134.578 114.308 134.857 113.954 135.071 113.564C135.591 113.419 136.063 113.147 136.44 112.775C136.711 112.516 137.254 112.257 137.538 111.986C138.017 111.66 138.589 111.479 139.178 111.468C139.449 110.95 139.72 110.679 140.275 110.679C140.547 110.42 141.089 110.42 141.915 110.161C142.302 110.199 142.69 110.107 143.013 109.902H147.662C148.083 110.113 148.558 110.203 149.031 110.161C149.302 110.42 150.128 110.42 150.683 110.679C150.955 110.679 151.497 110.95 151.781 110.95C152.323 111.468 152.866 111.727 153.137 111.986C153.692 112.257 153.964 112.516 154.519 112.775C154.59 112.775 154.659 112.803 154.71 112.851C154.761 112.9 154.79 112.966 154.79 113.034C155.061 113.034 155.616 113.293 155.616 113.564L156.701 114.612C156.973 114.871 157.256 115.389 157.527 115.648C157.938 116.048 158.306 116.485 158.625 116.955C158.69 117.349 158.879 117.715 159.168 118.003C159.399 118.513 159.585 119.041 159.723 119.581C159.723 119.84 159.994 120.358 159.994 120.617C160.237 121.108 160.332 121.655 160.265 122.195C160.265 122.713 160.536 122.972 160.536 123.502V229.942H163.274C167.308 229.914 171.19 231.411 174.072 234.107C176.953 236.803 178.6 240.478 178.652 244.33ZM130.447 165.348L76.0023 229.942H130.509L130.447 165.348Z" fill="#525560" fill-opacity="0.8"/>
<path d="M291.535 456.257L296.542 457.14L297.664 462.168L298.774 457.14L303.781 456.245L298.799 455.091L297.664 450.323L296.517 455.091L291.535 456.257Z" fill="#642AB6" fill-opacity="0.8"/>
<path d="M179.552 279.288L184.558 280.171L185.668 285.211L186.79 280.171L191.797 279.288L186.815 278.123L185.668 273.366L184.534 278.123L179.552 279.288Z" fill="#642AB6" fill-opacity="0.8"/>
<path d="M457.645 277.204L462.651 278.087L463.773 283.127L464.896 278.087L469.902 277.204L464.908 276.039L463.773 271.282L462.627 276.039L457.645 277.204Z" fill="#642AB6" fill-opacity="0.8"/>
<path d="M511.756 412.091L514.555 412.586L515.184 415.4L515.801 412.586L518.6 412.091L515.813 411.444L515.184 408.783L514.543 411.444L511.756 412.091Z" fill="#642AB6" fill-opacity="0.8"/>
<path d="M473.453 85.1411L476.24 85.6356L476.869 88.4497L477.498 85.6356L480.297 85.1411L477.51 84.4935L476.869 81.8325L476.24 84.4935L473.453 85.1411Z" fill="#642AB6" fill-opacity="0.8"/>
<path d="M528.577 168.88L531.376 169.375L531.993 172.189L532.622 169.375L535.421 168.88L532.634 168.233L531.993 165.572L531.364 168.233L528.577 168.88Z" fill="#642AB6" fill-opacity="0.8"/>
<path d="M101.381 206.641L104.18 207.135L104.797 209.949L105.426 207.135L108.225 206.641L105.438 205.993L104.797 203.332L104.168 205.993L101.381 206.641Z" fill="#642AB6" fill-opacity="0.8"/>
<path d="M30.0039 426.032L32.8032 426.527L33.4321 429.341L34.0611 426.527L36.8604 426.032L34.0734 425.373L33.4321 422.724L32.7909 425.373L30.0039 426.032Z" fill="#642AB6" fill-opacity="0.8"/>
<path d="M494.122 356.669L496.909 357.164L497.538 359.978L498.167 357.164L500.966 356.657L498.179 356.01L497.538 353.349L496.897 356.01L494.122 356.669Z" fill="#642AB6" fill-opacity="0.8"/>
<path d="M112.603 442.281L115.402 442.775L116.031 445.589L116.647 442.775L119.447 442.281L116.66 441.633L116.031 438.972L115.39 441.633L112.603 442.281Z" fill="#642AB6" fill-opacity="0.8"/>
<path d="M211.146 96.5621L213.945 97.0448L214.574 99.8707L215.203 97.0448L217.99 96.5503L215.203 95.9027L214.574 93.2417L213.932 95.9027L211.146 96.5621Z" fill="#642AB6" fill-opacity="0.8"/>
<path d="M376.786 175.509L379.585 176.003L380.214 178.817L380.831 176.003L383.63 175.497L380.843 174.849L380.214 172.188L379.573 174.849L376.786 175.509Z" fill="#642AB6" fill-opacity="0.8"/>
<path d="M154.481 387.271L157.281 387.766L157.897 390.58L158.526 387.766L161.326 387.271L158.539 386.623L157.897 383.962L157.268 386.623L154.481 387.271Z" fill="#642AB6" fill-opacity="0.8"/>
<path d="M33.433 474.366C33.6489 474.366 33.8559 474.448 34.0085 474.593C34.1612 474.739 34.2469 474.937 34.2469 475.143C34.2469 475.349 34.1612 475.547 34.0085 475.692C33.8559 475.838 33.6489 475.92 33.433 475.92C33.2172 475.92 33.0102 475.838 32.8575 475.692C32.7049 475.547 32.6191 475.349 32.6191 475.143C32.6191 474.937 32.7049 474.739 32.8575 474.593C33.0102 474.448 33.2172 474.366 33.433 474.366Z" fill="#642AB6" fill-opacity="0.8"/>
<path d="M437.496 380.1C437.711 380.1 437.918 380.182 438.071 380.328C438.224 380.473 438.309 380.671 438.309 380.877C438.309 381.083 438.224 381.281 438.071 381.427C437.918 381.572 437.711 381.654 437.496 381.654C437.28 381.654 437.073 381.572 436.92 381.427C436.767 381.281 436.682 381.083 436.682 380.877C436.682 380.671 436.767 380.473 436.92 380.328C437.073 380.182 437.28 380.1 437.496 380.1Z" fill="#642AB6" fill-opacity="0.8"/>
<path d="M445.165 269.386C445.362 269.409 445.543 269.5 445.675 269.642C445.806 269.784 445.879 269.967 445.879 270.157C445.879 270.347 445.806 270.53 445.675 270.672C445.543 270.814 445.362 270.905 445.165 270.928C444.968 270.905 444.787 270.814 444.655 270.672C444.524 270.53 444.451 270.347 444.451 270.157C444.451 269.967 444.524 269.784 444.655 269.642C444.787 269.5 444.968 269.409 445.165 269.386Z" fill="#642AB6" fill-opacity="0.8"/>
<path d="M388.439 212.292C388.655 212.292 388.862 212.374 389.014 212.52C389.167 212.665 389.253 212.863 389.253 213.069C389.253 213.275 389.167 213.473 389.014 213.619C388.862 213.764 388.655 213.846 388.439 213.846C388.223 213.846 388.016 213.764 387.863 213.619C387.711 213.473 387.625 213.275 387.625 213.069C387.625 212.863 387.711 212.665 387.863 212.52C388.016 212.374 388.223 212.292 388.439 212.292Z" fill="#642AB6" fill-opacity="0.8"/>
<path d="M138.066 484.845C138.263 484.868 138.445 484.959 138.576 485.101C138.708 485.243 138.78 485.426 138.78 485.616C138.78 485.806 138.708 485.989 138.576 486.131C138.445 486.273 138.263 486.364 138.066 486.387C137.869 486.364 137.688 486.273 137.557 486.131C137.425 485.989 137.353 485.806 137.353 485.616C137.353 485.426 137.425 485.243 137.557 485.101C137.688 484.959 137.869 484.868 138.066 484.845Z" fill="#642AB6" fill-opacity="0.8"/>
<path d="M104.796 439.961C104.993 439.984 105.174 440.075 105.306 440.218C105.437 440.36 105.51 440.543 105.51 440.732C105.51 440.922 105.437 441.105 105.306 441.247C105.174 441.389 104.993 441.48 104.796 441.503C104.599 441.48 104.418 441.389 104.286 441.247C104.155 441.105 104.082 440.922 104.082 440.732C104.082 440.543 104.155 440.36 104.286 440.218C104.418 440.075 104.599 439.984 104.796 439.961Z" fill="#642AB6" fill-opacity="0.8"/>
<path d="M188.393 419.403C188.609 419.403 188.816 419.485 188.969 419.63C189.121 419.776 189.207 419.974 189.207 420.18C189.207 420.386 189.121 420.584 188.969 420.729C188.816 420.875 188.609 420.957 188.393 420.957C188.177 420.957 187.97 420.875 187.817 420.729C187.665 420.584 187.579 420.386 187.579 420.18C187.579 419.974 187.665 419.776 187.817 419.63C187.97 419.485 188.177 419.403 188.393 419.403Z" fill="#642AB6" fill-opacity="0.8"/>
<path d="M341.948 439.961C342.145 439.984 342.327 440.075 342.458 440.218C342.59 440.36 342.662 440.543 342.662 440.732C342.662 440.922 342.59 441.105 342.458 441.247C342.327 441.389 342.145 441.48 341.948 441.503C341.751 441.48 341.57 441.389 341.438 441.247C341.307 441.105 341.234 440.922 341.234 440.732C341.234 440.543 341.307 440.36 341.438 440.218C341.57 440.075 341.751 439.984 341.948 439.961Z" fill="#642AB6" fill-opacity="0.8"/>
<path d="M476.094 390.25C476.291 390.273 476.472 390.365 476.604 390.507C476.735 390.649 476.808 390.832 476.808 391.021C476.808 391.211 476.735 391.394 476.604 391.536C476.472 391.678 476.291 391.769 476.094 391.792C475.897 391.769 475.715 391.678 475.584 391.536C475.452 391.394 475.38 391.211 475.38 391.021C475.38 390.832 475.452 390.649 475.584 390.507C475.715 390.365 475.897 390.273 476.094 390.25Z" fill="#642AB6" fill-opacity="0.8"/>
<path d="M442.156 304.591C442.372 304.591 442.579 304.673 442.731 304.819C442.884 304.965 442.97 305.162 442.97 305.368C442.97 305.575 442.884 305.772 442.731 305.918C442.579 306.064 442.372 306.146 442.156 306.146C441.94 306.146 441.733 306.064 441.58 305.918C441.428 305.772 441.342 305.575 441.342 305.368C441.342 305.162 441.428 304.965 441.58 304.819C441.733 304.673 441.94 304.591 442.156 304.591Z" fill="#642AB6" fill-opacity="0.8"/>
<path d="M304.423 438.419C304.561 438.438 304.686 438.504 304.777 438.605C304.868 438.705 304.918 438.834 304.918 438.966C304.918 439.099 304.868 439.228 304.777 439.328C304.686 439.429 304.561 439.495 304.423 439.514C304.285 439.495 304.16 439.429 304.069 439.328C303.978 439.228 303.928 439.099 303.928 438.966C303.928 438.834 303.978 438.705 304.069 438.605C304.16 438.504 304.285 438.438 304.423 438.419Z" fill="#642AB6" fill-opacity="0.8"/>
<path d="M127.178 98.6699C127.316 98.6892 127.441 98.7552 127.532 98.8557C127.623 98.9562 127.673 99.0846 127.673 99.2174C127.673 99.3502 127.623 99.4786 127.532 99.5792C127.441 99.6797 127.316 99.7456 127.178 99.7649C127.04 99.7456 126.915 99.6797 126.824 99.5792C126.733 99.4786 126.683 99.3502 126.683 99.2174C126.683 99.0846 126.733 98.9562 126.824 98.8557C126.915 98.7552 127.04 98.6892 127.178 98.6699Z" fill="#642AB6" fill-opacity="0.8"/>
<path d="M349.767 374.484C349.904 374.503 350.03 374.569 350.121 374.67C350.212 374.77 350.262 374.899 350.262 375.031C350.262 375.164 350.212 375.293 350.121 375.393C350.03 375.494 349.904 375.56 349.767 375.579C349.629 375.56 349.503 375.494 349.412 375.393C349.321 375.293 349.271 375.164 349.271 375.031C349.271 374.899 349.321 374.77 349.412 374.67C349.503 374.569 349.629 374.503 349.767 374.484Z" fill="#642AB6" fill-opacity="0.8"/>
<path d="M128.62 445.036C128.758 445.055 128.884 445.121 128.975 445.221C129.066 445.322 129.116 445.45 129.116 445.583C129.116 445.716 129.066 445.844 128.975 445.945C128.884 446.045 128.758 446.111 128.62 446.131C128.483 446.111 128.357 446.045 128.266 445.945C128.175 445.844 128.125 445.716 128.125 445.583C128.125 445.45 128.175 445.322 128.266 445.221C128.357 445.121 128.483 445.055 128.62 445.036Z" fill="#642AB6" fill-opacity="0.8"/>
<path d="M275.332 312.88C275.47 312.9 275.596 312.966 275.687 313.066C275.777 313.167 275.827 313.295 275.827 313.428C275.827 313.561 275.777 313.689 275.687 313.79C275.596 313.89 275.47 313.956 275.332 313.975C275.195 313.956 275.069 313.89 274.978 313.79C274.887 313.689 274.837 313.561 274.837 313.428C274.837 313.295 274.887 313.167 274.978 313.066C275.069 312.966 275.195 312.9 275.332 312.88Z" fill="#642AB6" fill-opacity="0.8"/>
<path d="M399.415 319.18C399.827 319.18 400.222 319.336 400.514 319.614C400.805 319.892 400.969 320.27 400.969 320.663C400.969 321.057 400.805 321.434 400.514 321.712C400.222 321.991 399.827 322.147 399.415 322.147C399.003 322.147 398.608 321.991 398.316 321.712C398.025 321.434 397.861 321.057 397.861 320.663C397.861 320.27 398.025 319.892 398.316 319.614C398.608 319.336 399.003 319.18 399.415 319.18Z" fill="#642AB6" fill-opacity="0.8"/>
<path d="M181.487 114.565L186.482 115.448L187.604 120.488L188.726 115.448L193.733 114.565L188.751 113.399L187.604 108.643L186.469 113.399L181.487 114.565Z" fill="#642AB6" fill-opacity="0.8"/>
<path d="M391.929 155.01L396.935 155.893L398.058 160.932L399.167 155.893L404.174 155.01L399.192 153.844L398.058 149.087L396.911 153.844L391.929 155.01Z" fill="#642AB6" fill-opacity="0.8"/>
<path d="M27.3154 275.815L32.3098 276.698L33.432 281.738L34.5542 276.698L39.5609 275.815L34.5788 274.649L33.432 269.893L32.2975 274.649L27.3154 275.815Z" fill="#642AB6" fill-opacity="0.8"/>
<path d="M470.754 35.8419L475.761 36.725L476.87 41.7644L477.993 36.725L482.999 35.8302L478.017 34.6763L476.87 29.9194L475.736 34.6763L470.754 35.8419Z" fill="#642AB6" fill-opacity="0.8"/>
<path d="M290.808 47.2041L293.607 47.6986L294.236 50.5127L294.865 47.6986L297.664 47.2041L294.877 46.5565L294.236 43.8955L293.595 46.5565L290.808 47.2041Z" fill="#642AB6" fill-opacity="0.8"/>
<path d="M33.4326 141.27L36.2319 141.764L36.8608 144.578L37.4774 141.764L40.2767 141.27L37.4898 140.622L36.8608 137.961L36.2196 140.622L33.4326 141.27Z" fill="#642AB6" fill-opacity="0.8"/>
<path d="M84.8188 136.595C85.0346 136.595 85.2417 136.677 85.3943 136.823C85.5469 136.969 85.6327 137.166 85.6327 137.372C85.6327 137.578 85.5469 137.776 85.3943 137.922C85.2417 138.068 85.0346 138.149 84.8188 138.149C84.6029 138.149 84.3959 138.068 84.2433 137.922C84.0906 137.776 84.0049 137.578 84.0049 137.372C84.0049 137.166 84.0906 136.969 84.2433 136.823C84.3959 136.677 84.6029 136.595 84.8188 136.595Z" fill="#642AB6" fill-opacity="0.8"/>
<path d="M23.1469 413.975C23.3628 413.975 23.5698 414.057 23.7224 414.203C23.875 414.348 23.9608 414.546 23.9608 414.752C23.9608 414.958 23.875 415.156 23.7224 415.302C23.5698 415.447 23.3628 415.529 23.1469 415.529C22.931 415.529 22.724 415.447 22.5714 415.302C22.4188 415.156 22.333 414.958 22.333 414.752C22.333 414.546 22.4188 414.348 22.5714 414.203C22.724 414.057 22.931 413.975 23.1469 413.975Z" fill="#642AB6" fill-opacity="0.8"/>
<path d="M89.6778 387.271C89.8748 387.294 90.0561 387.386 90.1876 387.528C90.3191 387.67 90.3917 387.853 90.3917 388.042C90.3917 388.232 90.3191 388.415 90.1876 388.557C90.0561 388.699 89.8748 388.79 89.6778 388.813C89.4807 388.79 89.2994 388.699 89.1679 388.557C89.0364 388.415 88.9639 388.232 88.9639 388.042C88.9639 387.853 89.0364 387.67 89.1679 387.528C89.2994 387.386 89.4807 387.294 89.6778 387.271Z" fill="#642AB6" fill-opacity="0.8"/>
<path d="M23.9366 191.205C24.1336 191.228 24.3149 191.319 24.4464 191.461C24.5779 191.603 24.6505 191.786 24.6505 191.976C24.6505 192.165 24.5779 192.348 24.4464 192.49C24.3149 192.632 24.1336 192.724 23.9366 192.747C23.7395 192.724 23.5582 192.632 23.4267 192.49C23.2952 192.348 23.2227 192.165 23.2227 191.976C23.2227 191.786 23.2952 191.603 23.4267 191.461C23.5582 191.319 23.7395 191.228 23.9366 191.205Z" fill="#642AB6" fill-opacity="0.8"/>
<path d="M89.6772 74.7676C89.893 74.7676 90.1001 74.8494 90.2527 74.9952C90.4053 75.1409 90.4911 75.3386 90.4911 75.5447C90.4911 75.7508 90.4053 75.9484 90.2527 76.0942C90.1001 76.2399 89.893 76.3218 89.6772 76.3218C89.4613 76.3218 89.2543 76.2399 89.1017 76.0942C88.949 75.9484 88.8633 75.7508 88.8633 75.5447C88.8633 75.3386 88.949 75.1409 89.1017 74.9952C89.2543 74.8494 89.4613 74.7676 89.6772 74.7676Z" fill="#642AB6" fill-opacity="0.8"/>
<path d="M195.878 35.0649C196.075 35.0882 196.256 35.1795 196.388 35.3215C196.519 35.4636 196.592 35.6466 196.592 35.8362C196.592 36.0257 196.519 36.2088 196.388 36.3508C196.256 36.4928 196.075 36.5841 195.878 36.6074C195.681 36.5841 195.5 36.4928 195.368 36.3508C195.237 36.2088 195.164 36.0257 195.164 35.8362C195.164 35.6466 195.237 35.4636 195.368 35.3215C195.5 35.1795 195.681 35.0882 195.878 35.0649Z" fill="#642AB6" fill-opacity="0.8"/>
<path d="M163.298 311.951C163.436 311.97 163.561 312.036 163.652 312.136C163.743 312.237 163.793 312.365 163.793 312.498C163.793 312.631 163.743 312.759 163.652 312.86C163.561 312.96 163.436 313.026 163.298 313.046C163.16 313.026 163.035 312.96 162.944 312.86C162.853 312.759 162.803 312.631 162.803 312.498C162.803 312.365 162.853 312.237 162.944 312.136C163.035 312.036 163.16 311.97 163.298 311.951Z" fill="#642AB6" fill-opacity="0.8"/>
<path d="M162.743 453.042C162.881 453.062 163.007 453.128 163.098 453.228C163.189 453.329 163.239 453.457 163.239 453.59C163.239 453.723 163.189 453.851 163.098 453.952C163.007 454.052 162.881 454.118 162.743 454.137C162.606 454.118 162.48 454.052 162.389 453.952C162.298 453.851 162.248 453.723 162.248 453.59C162.248 453.457 162.298 453.329 162.389 453.228C162.48 453.128 162.606 453.062 162.743 453.042Z" fill="#642AB6" fill-opacity="0.8"/>
<path d="M455.82 131.131L458.62 131.626L459.236 134.44L459.865 131.626L462.664 131.131L459.877 130.484L459.236 127.823L458.607 130.484L455.82 131.131Z" fill="#642AB6" fill-opacity="0.8"/>
<path d="M518.428 270.952L521.227 271.447L521.856 274.261L522.485 271.447L525.272 270.94L522.497 270.293L521.856 267.632L521.215 270.293L518.428 270.952Z" fill="#642AB6" fill-opacity="0.8"/>
<path d="M448.013 133.793C448.21 133.816 448.391 133.908 448.523 134.05C448.654 134.192 448.727 134.375 448.727 134.564C448.727 134.754 448.654 134.937 448.523 135.079C448.391 135.221 448.21 135.312 448.013 135.335C447.816 135.312 447.634 135.221 447.503 135.079C447.371 134.937 447.299 134.754 447.299 134.564C447.299 134.375 447.371 134.192 447.503 134.05C447.634 133.908 447.816 133.816 448.013 133.793Z" fill="#642AB6" fill-opacity="0.8"/>
<path d="M365.181 56.3882C365.318 56.4075 365.444 56.4734 365.535 56.574C365.626 56.6745 365.676 56.8029 365.676 56.9357C365.676 57.0685 365.626 57.1969 365.535 57.2974C365.444 57.3979 365.318 57.4639 365.181 57.4832C365.043 57.4639 364.917 57.3979 364.826 57.2974C364.736 57.1969 364.686 57.0685 364.686 56.9357C364.686 56.8029 364.736 56.6745 364.826 56.574C364.917 56.4734 365.043 56.4075 365.181 56.3882Z" fill="#642AB6" fill-opacity="0.8"/>
<path d="M243.158 503.872C243.296 503.891 243.422 503.957 243.513 504.058C243.604 504.158 243.654 504.287 243.654 504.42C243.654 504.552 243.604 504.681 243.513 504.781C243.422 504.882 243.296 504.948 243.158 504.967C243.021 504.948 242.895 504.882 242.804 504.781C242.713 504.681 242.663 504.552 242.663 504.42C242.663 504.287 242.713 504.158 242.804 504.058C242.895 503.957 243.021 503.891 243.158 503.872Z" fill="#642AB6" fill-opacity="0.8"/>
<path d="M505.96 146.874C506.098 146.893 506.224 146.959 506.314 147.06C506.405 147.16 506.455 147.289 506.455 147.422C506.455 147.554 506.405 147.683 506.314 147.783C506.224 147.884 506.098 147.95 505.96 147.969C505.823 147.95 505.697 147.884 505.606 147.783C505.515 147.683 505.465 147.554 505.465 147.422C505.465 147.289 505.515 147.16 505.606 147.06C505.697 146.959 505.823 146.893 505.96 146.874Z" fill="#642AB6" fill-opacity="0.8"/>
<path d="M390.535 119.946C390.673 119.966 390.799 120.032 390.89 120.132C390.981 120.233 391.031 120.361 391.031 120.494C391.031 120.627 390.981 120.755 390.89 120.856C390.799 120.956 390.673 121.022 390.535 121.041C390.398 121.022 390.272 120.956 390.181 120.856C390.09 120.755 390.04 120.627 390.04 120.494C390.04 120.361 390.09 120.233 390.181 120.132C390.272 120.032 390.398 119.966 390.535 119.946Z" fill="#642AB6" fill-opacity="0.8"/>
<path d="M392.187 36.0654C392.324 36.0848 392.45 36.1507 392.541 36.2512C392.632 36.3517 392.682 36.4801 392.682 36.6129C392.682 36.7458 392.632 36.8741 392.541 36.9747C392.45 37.0752 392.324 37.1411 392.187 37.1604C392.049 37.1411 391.923 37.0752 391.832 36.9747C391.741 36.8741 391.691 36.7458 391.691 36.6129C391.691 36.4801 391.741 36.3517 391.832 36.2512C391.923 36.1507 392.049 36.0848 392.187 36.0654Z" fill="#642AB6" fill-opacity="0.8"/>
<path d="M231.469 292.487C231.881 292.487 232.276 292.644 232.568 292.922C232.859 293.2 233.023 293.577 233.023 293.971C233.023 294.364 232.859 294.742 232.568 295.02C232.276 295.298 231.881 295.454 231.469 295.454C231.057 295.454 230.662 295.298 230.37 295.02C230.079 294.742 229.915 294.364 229.915 293.971C229.915 293.577 230.079 293.2 230.37 292.922C230.662 292.644 231.057 292.487 231.469 292.487Z" fill="#642AB6" fill-opacity="0.8"/>
<path d="M443.661 216.507C444.051 216.54 444.413 216.712 444.677 216.987C444.942 217.263 445.088 217.623 445.088 217.997C445.088 218.37 444.942 218.731 444.677 219.006C444.413 219.282 444.051 219.453 443.661 219.486C443.271 219.453 442.908 219.282 442.644 219.006C442.38 218.731 442.233 218.37 442.233 217.997C442.233 217.623 442.38 217.263 442.644 216.987C442.908 216.712 443.271 216.54 443.661 216.507Z" fill="#642AB6" fill-opacity="0.8"/>
<path d="M92.3165 217.991C92.7286 217.991 93.1238 218.148 93.4152 218.426C93.7066 218.704 93.8703 219.081 93.8703 219.475C93.8703 219.868 93.7066 220.246 93.4152 220.524C93.1238 220.802 92.7286 220.958 92.3165 220.958C91.9044 220.958 91.5092 220.802 91.2178 220.524C90.9264 220.246 90.7627 219.868 90.7627 219.475C90.7627 219.081 90.9264 218.704 91.2178 218.426C91.5092 218.148 91.9044 217.991 92.3165 217.991Z" fill="#642AB6" fill-opacity="0.8"/>
<path d="M520.106 226.952C520.518 226.952 520.913 227.108 521.204 227.386C521.496 227.664 521.659 228.042 521.659 228.435C521.659 228.829 521.496 229.206 521.204 229.484C520.913 229.762 520.518 229.919 520.106 229.919C519.693 229.919 519.298 229.762 519.007 229.484C518.715 229.206 518.552 228.829 518.552 228.435C518.552 228.042 518.715 227.664 519.007 227.386C519.298 227.108 519.693 226.952 520.106 226.952Z" fill="#642AB6" fill-opacity="0.8"/>
<path d="M70.6495 362.815C71.0616 362.815 71.4568 362.972 71.7482 363.25C72.0396 363.528 72.2033 363.906 72.2033 364.299C72.2033 364.692 72.0396 365.07 71.7482 365.348C71.4568 365.626 71.0616 365.783 70.6495 365.783C70.2374 365.783 69.8422 365.626 69.5508 365.348C69.2594 365.07 69.0957 364.692 69.0957 364.299C69.0957 363.906 69.2594 363.528 69.5508 363.25C69.8422 362.972 70.2374 362.815 70.6495 362.815Z" fill="#642AB6" fill-opacity="0.8"/>
<path d="M149.068 73.0137L151.855 73.4965L152.484 76.3223L153.113 73.4965L155.912 73.0019L153.125 72.3544L152.484 69.6934L151.855 72.3544L149.068 73.0137Z" fill="#642AB6" fill-opacity="0.8"/>
<path d="M301.61 352.96L304.397 353.455L305.026 356.269L305.655 353.455L308.454 352.96L305.667 352.301L305.026 349.64L304.397 352.301L301.61 352.96Z" fill="#642AB6" fill-opacity="0.8"/>
<path d="M391.929 481.666C392.145 481.666 392.352 481.747 392.505 481.893C392.657 482.039 392.743 482.237 392.743 482.443C392.743 482.649 392.657 482.846 392.505 482.992C392.352 483.138 392.145 483.22 391.929 483.22C391.713 483.22 391.506 483.138 391.354 482.992C391.201 482.846 391.115 482.649 391.115 482.443C391.115 482.237 391.201 482.039 391.354 481.893C391.506 481.747 391.713 481.666 391.929 481.666Z" fill="#642AB6" fill-opacity="0.8"/>
<path d="M338.175 474.366C338.391 474.366 338.598 474.448 338.751 474.593C338.903 474.739 338.989 474.937 338.989 475.143C338.989 475.349 338.903 475.547 338.751 475.692C338.598 475.838 338.391 475.92 338.175 475.92C337.959 475.92 337.752 475.838 337.6 475.692C337.447 475.547 337.361 475.349 337.361 475.143C337.361 474.937 337.447 474.739 337.6 474.593C337.752 474.448 337.959 474.366 338.175 474.366Z" fill="#642AB6" fill-opacity="0.8"/>
<path d="M355.477 267.443L358.264 267.938L358.892 270.752L359.521 267.938L362.321 267.443L359.534 266.796L358.892 264.135L358.251 266.796L355.477 267.443Z" fill="#642AB6" fill-opacity="0.8"/>
<path d="M451.355 427.963L454.155 428.457L454.784 431.272L455.4 428.457L458.2 427.963L455.413 427.315L454.784 424.654L454.142 427.315L451.355 427.963Z" fill="#642AB6" fill-opacity="0.8"/>
<path d="M476.869 495.454L479.668 495.948L480.297 498.762L480.926 495.948L483.713 495.454L480.939 494.794L480.297 492.133L479.656 494.794L476.869 495.454Z" fill="#642AB6" fill-opacity="0.8"/>
<path d="M367.276 118.945C367.473 118.968 367.655 119.059 367.786 119.201C367.918 119.343 367.99 119.526 367.99 119.716C367.99 119.906 367.918 120.089 367.786 120.231C367.655 120.373 367.473 120.464 367.276 120.487C367.079 120.464 366.898 120.373 366.767 120.231C366.635 120.089 366.562 119.906 366.562 119.716C366.562 119.526 366.635 119.343 366.767 119.201C366.898 119.059 367.079 118.968 367.276 118.945Z" fill="#642AB6" fill-opacity="0.8"/>
<path d="M458.198 463.51C458.336 463.529 458.462 463.595 458.553 463.696C458.644 463.796 458.694 463.924 458.694 464.057C458.694 464.19 458.644 464.318 458.553 464.419C458.462 464.52 458.336 464.585 458.198 464.605C458.061 464.585 457.935 464.52 457.844 464.419C457.753 464.318 457.703 464.19 457.703 464.057C457.703 463.924 457.753 463.796 457.844 463.696C457.935 463.595 458.061 463.529 458.198 463.51Z" fill="#642AB6" fill-opacity="0.8"/>
<path d="M54.1875 292.487L56.9868 292.982L57.6157 295.796L58.2323 292.982L61.0316 292.487L58.2446 291.828L57.6157 289.179L56.9745 291.828L54.1875 292.487Z" fill="#642AB6" fill-opacity="0.8"/>
<path d="M21.8409 349.864C22.0379 349.887 22.2192 349.978 22.3507 350.12C22.4822 350.262 22.5548 350.445 22.5548 350.635C22.5548 350.825 22.4822 351.008 22.3507 351.15C22.2192 351.292 22.0379 351.383 21.8409 351.406C21.6438 351.383 21.4625 351.292 21.331 351.15C21.1995 351.008 21.127 350.825 21.127 350.635C21.127 350.445 21.1995 350.262 21.331 350.12C21.4625 349.978 21.6438 349.887 21.8409 349.864Z" fill="#642AB6" fill-opacity="0.8"/>
<path d="M222.207 227.658C222.423 227.658 222.63 227.74 222.783 227.886C222.936 228.032 223.021 228.229 223.021 228.435C223.021 228.641 222.936 228.839 222.783 228.985C222.63 229.131 222.423 229.212 222.207 229.212C221.992 229.212 221.785 229.131 221.632 228.985C221.479 228.839 221.394 228.641 221.394 228.435C221.394 228.229 221.479 228.032 221.632 227.886C221.785 227.74 221.992 227.658 222.207 227.658Z" fill="#642AB6" fill-opacity="0.8"/>
<path d="M162.743 141.952C162.881 141.971 163.007 142.037 163.098 142.138C163.189 142.238 163.239 142.367 163.239 142.5C163.239 142.632 163.189 142.761 163.098 142.861C163.007 142.962 162.881 143.028 162.743 143.047C162.606 143.028 162.48 142.962 162.389 142.861C162.298 142.761 162.248 142.632 162.248 142.5C162.248 142.367 162.298 142.238 162.389 142.138C162.48 142.037 162.606 141.971 162.743 141.952Z" fill="#642AB6" fill-opacity="0.8"/>
<path d="M69.1456 45.7207C69.5577 45.7207 69.9529 45.877 70.2443 46.1552C70.5357 46.4335 70.6994 46.8108 70.6994 47.2043C70.6994 47.5977 70.5357 47.9751 70.2443 48.2533C69.9529 48.5315 69.5577 48.6878 69.1456 48.6878C68.7335 48.6878 68.3383 48.5315 68.0469 48.2533C67.7555 47.9751 67.5918 47.5977 67.5918 47.2043C67.5918 46.8108 67.7555 46.4335 68.0469 46.1552C68.3383 45.877 68.7335 45.7207 69.1456 45.7207Z" fill="#642AB6" fill-opacity="0.8"/>
<path d="M437.728 78.8652C438.14 78.8652 438.535 79.0215 438.826 79.2998C439.118 79.578 439.281 79.9553 439.281 80.3488C439.281 80.7423 439.118 81.1196 438.826 81.3978C438.535 81.6761 438.14 81.8324 437.728 81.8324C437.316 81.8324 436.92 81.6761 436.629 81.3978C436.338 81.1196 436.174 80.7423 436.174 80.3488C436.174 79.9553 436.338 79.578 436.629 79.2998C436.92 79.0215 437.316 78.8652 437.728 78.8652Z" fill="#642AB6" fill-opacity="0.8"/>
<path d="M325.101 391.721C324.719 392.569 347.212 437.464 348.988 439.266C349.073 439.351 349.168 439.426 349.272 439.49C351.935 441.491 369.73 448.167 371.161 448.627C374.7 449.745 410.178 397.561 412.891 388.318C413.569 385.963 398.993 358.459 394.036 354.667C391.915 353.042 383.862 350.464 382.839 350.782C381.408 351.312 325.496 390.873 325.101 391.721Z" fill="#642AB6" fill-opacity="0.6"/>
<path opacity="0.1" d="M325.101 391.721C324.719 392.569 347.212 437.464 348.988 439.266C349.073 439.351 349.168 439.426 349.272 439.49C351.935 441.491 369.73 448.167 371.161 448.627C374.7 449.745 410.178 397.561 412.891 388.318C413.569 385.963 398.993 358.459 394.036 354.667C391.915 353.042 383.862 350.464 382.839 350.782C381.408 351.312 325.496 390.873 325.101 391.721Z" fill="#642AB6" fill-opacity="0.6"/>
<path opacity="0.1" d="M325.101 391.722C324.719 392.569 347.212 437.465 348.988 439.266C349.073 439.352 349.168 439.427 349.272 439.49C358.434 429.8 401.361 384.221 401.398 383.491C401.435 382.761 386.76 356.799 382.851 350.782C381.408 351.312 325.496 390.874 325.101 391.722Z" fill="#2B2A30"/>
<path d="M197.233 355.115L153.529 360.896C145.181 362.073 137.843 362.898 134.008 363.003C133.113 363.121 132.202 363.04 131.344 362.768C131.344 362.768 131.344 362.768 131.283 362.768C129.236 360.637 117.718 297.22 118.076 294.877C118.433 292.534 125.475 293.382 127.941 295.501C130.407 297.621 146.241 320.015 146.241 320.015L189.945 314.646L197.233 355.115Z" fill="#6B6E70"/>
<path d="M124.858 363.993L124.205 360.719C124.583 360.632 124.943 360.481 125.265 360.272C125.872 359.852 126.317 359.253 126.532 358.567C126.747 357.882 126.72 357.148 126.455 356.478C126.19 355.809 125.702 355.241 125.066 354.863C124.429 354.485 123.681 354.317 122.934 354.385L122.33 351.418C122.724 351.328 123.096 351.168 123.428 350.947C124.061 350.537 124.531 349.934 124.76 349.237C124.989 348.539 124.964 347.789 124.69 347.106C124.416 346.424 123.908 345.851 123.249 345.479C122.589 345.107 121.818 344.96 121.06 345.06L120.456 342.092C120.874 342.008 121.272 341.849 121.627 341.621C122.277 341.21 122.759 340.598 122.991 339.887C123.224 339.176 123.192 338.411 122.903 337.72C122.613 337.029 122.083 336.454 121.401 336.092C120.72 335.73 119.929 335.604 119.161 335.734L118.569 332.767C118.989 332.67 119.387 332.498 119.741 332.261C120.39 331.85 120.872 331.237 121.104 330.526C121.337 329.816 121.306 329.05 121.016 328.359C120.726 327.668 120.196 327.093 119.515 326.732C118.833 326.37 118.042 326.243 117.274 326.374L116.695 323.371C117.138 323.292 117.558 323.123 117.928 322.877C118.565 322.459 119.034 321.847 119.258 321.14C119.482 320.434 119.447 319.676 119.16 318.991C118.873 318.306 118.351 317.735 117.679 317.371C117.006 317.007 116.224 316.873 115.461 316.99L114.869 314.034C115.312 313.948 115.732 313.775 116.103 313.528C116.842 313.038 117.347 312.288 117.509 311.443C117.671 310.598 117.475 309.726 116.966 309.018C116.593 308.505 116.075 308.105 115.472 307.863C114.869 307.621 114.207 307.548 113.562 307.652L112.97 304.685C113.416 304.606 113.837 304.433 114.204 304.179C114.877 303.769 115.378 303.145 115.617 302.417C115.856 301.689 115.818 300.904 115.51 300.2C115.201 299.496 114.643 298.919 113.932 298.57C113.222 298.221 112.405 298.122 111.626 298.292L111.071 295.501L117.952 294.795L131.283 362.815L124.858 363.993Z" fill="#2B2A30"/>
<path d="M145.687 360.166C145.556 358.277 145.014 356.435 144.097 354.756C143.18 353.078 141.907 351.6 140.36 350.417C137.592 348.258 134.057 347.203 130.494 347.473C130.396 347.473 130.408 347.673 130.494 347.685C134.064 347.943 137.45 349.301 140.143 351.553C142.836 353.806 144.691 356.832 145.428 360.178C145.43 360.21 145.445 360.241 145.47 360.263C145.496 360.285 145.529 360.297 145.564 360.295C145.598 360.294 145.63 360.279 145.653 360.255C145.677 360.231 145.689 360.199 145.687 360.166Z" fill="#2B2A30"/>
<path d="M154.047 358.106C153.751 353.467 153.048 348.851 152.308 344.259C151.568 339.667 150.816 335.169 150.015 330.636C149.558 328.034 149.102 325.432 148.51 322.865C148.501 322.836 148.482 322.81 148.457 322.792C148.431 322.774 148.4 322.764 148.368 322.764C148.336 322.764 148.305 322.774 148.28 322.792C148.254 322.81 148.236 322.836 148.227 322.865C148.584 327.492 149.324 332.108 149.965 336.712C150.607 341.315 151.285 345.825 152.049 350.37C152.493 352.972 152.999 355.551 153.64 358.129C153.654 358.172 153.682 358.21 153.721 358.235C153.76 358.261 153.806 358.273 153.853 358.271C153.9 358.268 153.945 358.25 153.98 358.22C154.015 358.19 154.039 358.15 154.047 358.106Z" fill="#2B2A30"/>
<path d="M157.736 357.14C157.44 352.489 156.737 347.885 155.997 343.293C155.257 338.701 154.505 334.204 153.703 329.659C153.259 327.068 152.791 324.466 152.199 321.888C152.19 321.858 152.171 321.833 152.145 321.815C152.12 321.796 152.089 321.787 152.057 321.787C152.025 321.787 151.994 321.796 151.968 321.815C151.943 321.833 151.924 321.858 151.915 321.888C152.273 326.527 153.013 331.13 153.654 335.734C154.295 340.338 154.973 344.848 155.738 349.392C156.182 352.006 156.687 354.585 157.329 357.152C157.341 357.195 157.369 357.233 157.406 357.259C157.444 357.286 157.49 357.299 157.537 357.298C157.584 357.297 157.629 357.28 157.665 357.252C157.701 357.223 157.726 357.184 157.736 357.14Z" fill="#2B2A30"/>
<path d="M166.564 359.166L161.631 318.097C165.1 315.033 169.459 313.042 174.135 312.386C192.349 309.372 225.694 308.3 245.117 311.562C261.506 314.305 313.546 360.932 321.734 367.113C324.731 369.362 331.686 365.312 331.686 365.312L355.387 411.609C355.387 411.609 336.692 423.571 318.182 413.198C295.393 400.423 248.607 355.421 239.358 353.596C230.997 351.948 195.198 359.896 177.144 362.003C173.363 362.426 169.561 361.406 166.564 359.166Z" fill="#642AB6" fill-opacity="0.6"/>
<path d="M172.854 355.55C172.755 350.9 172.237 346.26 171.682 341.645C171.127 337.029 170.572 332.508 169.968 327.951C169.61 325.338 169.265 322.712 168.735 320.121C168.726 320.092 168.707 320.067 168.681 320.049C168.656 320.03 168.625 320.021 168.593 320.021C168.561 320.021 168.53 320.03 168.505 320.049C168.479 320.067 168.46 320.092 168.451 320.121C168.624 324.761 169.166 329.4 169.623 334.027C170.079 338.654 170.56 343.187 171.139 347.744C171.472 350.37 171.867 352.972 172.373 355.562C172.374 355.623 172.401 355.681 172.447 355.723C172.494 355.765 172.556 355.788 172.619 355.786C172.683 355.784 172.744 355.759 172.788 355.715C172.831 355.67 172.855 355.611 172.854 355.55Z" fill="#2B2A30"/>
<path opacity="0.1" d="M246.178 328.363C245.081 328.889 244.127 329.651 243.391 330.589C242.63 331.498 241.976 332.485 241.443 333.532C240.389 335.608 239.634 337.81 239.199 340.079C238.964 341.197 238.829 342.328 238.693 343.458C238.557 344.588 238.533 345.719 238.557 346.849C238.582 347.979 238.644 349.11 238.767 350.24C238.907 351.368 239.109 352.488 239.371 353.596C239.704 352.489 239.926 351.382 240.136 350.287C240.345 349.192 240.592 348.109 240.765 347.026C240.937 345.942 241.172 344.859 241.344 343.788L241.653 342.186C241.751 341.645 241.825 341.103 241.949 340.585C242.38 338.466 242.873 336.37 243.49 334.309C244.033 332.198 244.941 330.188 246.178 328.363Z" fill="#2B2A30"/>
<path d="M263.121 328.333C266.267 323.129 262.591 315.479 254.911 311.247C247.23 307.015 238.454 307.803 235.309 313.007C232.163 318.211 235.839 325.861 243.52 330.093C251.2 334.325 259.976 333.537 263.121 328.333Z" fill="#642AB6" fill-opacity="0.6"/>
<path opacity="0.1" d="M263.121 328.333C266.267 323.129 262.591 315.479 254.911 311.247C247.23 307.015 238.454 307.803 235.309 313.007C232.163 318.211 235.839 325.861 243.52 330.093C251.2 334.325 259.976 333.537 263.121 328.333Z" fill="#642AB6"/>
<path opacity="0.1" d="M355.375 411.608C355.375 411.608 336.68 423.571 318.17 413.198C295.393 400.423 248.607 355.421 239.345 353.596C230.985 351.948 195.198 359.907 177.132 362.003C173.355 362.422 169.558 361.403 166.563 359.165L162.025 321.487L343.068 387.541L355.375 411.608Z" fill="#642AB6"/>
<path d="M262.605 407.099C262.605 407.099 272.075 448.226 272.075 448.25C273.913 456.103 275.38 463.027 275.775 466.665C275.775 466.665 275.775 466.665 275.775 466.724C275.983 467.564 275.983 468.439 275.775 469.279C275.782 469.302 275.782 469.327 275.775 469.35C273.703 471.457 208.382 487.364 205.916 487.176C203.449 486.988 203.77 480.264 205.792 477.757C207.815 475.249 229.975 458.435 229.975 458.435L220.973 417.225L262.605 407.099Z" fill="#6B6E70"/>
<path d="M277.464 475.308L274.11 476.179C273.985 475.827 273.792 475.499 273.543 475.214C273.263 474.882 272.917 474.607 272.526 474.404C272.134 474.2 271.705 474.072 271.261 474.028C270.818 473.983 270.37 474.022 269.943 474.142C269.515 474.263 269.117 474.463 268.77 474.731C268.287 475.102 267.917 475.592 267.7 476.147C267.483 476.702 267.427 477.303 267.537 477.886L264.491 478.687C264.204 477.915 263.621 477.275 262.86 476.895C262.099 476.516 261.216 476.425 260.388 476.641C259.56 476.857 258.848 477.364 258.394 478.06C257.941 478.756 257.78 479.59 257.943 480.394L254.885 481.195C254.766 480.812 254.569 480.456 254.305 480.147C253.82 479.583 253.151 479.191 252.404 479.034C251.658 478.878 250.878 478.966 250.19 479.284C249.502 479.602 248.947 480.132 248.613 480.788C248.279 481.445 248.186 482.189 248.349 482.902L245.303 483.703C245.169 483.309 244.96 482.941 244.686 482.62C244.204 482.043 243.53 481.641 242.776 481.48C242.022 481.319 241.233 481.409 240.54 481.734C239.847 482.06 239.291 482.602 238.964 483.27C238.637 483.939 238.559 484.694 238.743 485.41L235.684 486.199C235.561 485.796 235.355 485.42 235.08 485.092C234.592 484.521 233.915 484.125 233.16 483.969C232.405 483.814 231.617 483.908 230.925 484.237C230.234 484.565 229.68 485.109 229.355 485.778C229.03 486.447 228.953 487.202 229.136 487.918L226.09 488.707C225.976 488.277 225.766 487.875 225.474 487.53C224.979 486.96 224.297 486.568 223.539 486.417C222.781 486.267 221.992 486.367 221.301 486.701C220.61 487.035 220.058 487.583 219.736 488.255C219.414 488.928 219.342 489.685 219.53 490.402L216.484 491.191C216.366 490.76 216.151 490.358 215.855 490.014C215.361 489.438 214.676 489.041 213.913 488.89C213.15 488.738 212.356 488.842 211.663 489.182C210.97 489.522 210.421 490.08 210.106 490.76C209.792 491.441 209.732 492.204 209.936 492.922L207.062 493.664L205.829 487.176L275.775 469.291L277.464 475.308Z" fill="#2B2A30"/>
<path d="M271.877 455.833C269.915 456.106 268.034 456.765 266.353 457.768C264.672 458.771 263.227 460.097 262.111 461.661C260.079 464.462 259.258 467.904 259.817 471.269C259.817 471.363 260.026 471.34 260.026 471.269C260.02 467.849 261.174 464.518 263.318 461.778C265.461 459.037 268.478 457.034 271.914 456.068C271.93 456.066 271.946 456.061 271.96 456.053C271.974 456.045 271.986 456.034 271.996 456.021C272.006 456.009 272.013 455.995 272.017 455.979C272.021 455.964 272.022 455.948 272.019 455.933C272.017 455.917 272.011 455.903 272.003 455.889C271.994 455.876 271.983 455.864 271.97 455.855C271.957 455.846 271.942 455.839 271.926 455.835C271.91 455.831 271.893 455.831 271.877 455.833Z" fill="#2B2A30"/>
<path d="M269.128 447.979C264.294 448.615 259.534 449.64 254.798 450.699C250.063 451.759 245.426 452.831 240.752 453.937C238.076 454.573 235.388 455.209 232.749 455.986C232.713 455.995 232.683 456.018 232.664 456.049C232.646 456.08 232.641 456.117 232.65 456.151C232.66 456.185 232.684 456.214 232.716 456.232C232.749 456.25 232.787 456.254 232.823 456.245C237.632 455.539 242.393 454.479 247.14 453.513C251.888 452.548 256.562 451.547 261.248 450.464C263.936 449.852 266.587 449.169 269.226 448.356C269.268 448.335 269.3 448.302 269.319 448.261C269.338 448.22 269.342 448.174 269.331 448.131C269.32 448.088 269.294 448.049 269.257 448.022C269.22 447.994 269.175 447.979 269.128 447.979Z" fill="#2B2A30"/>
<path d="M267.784 444.542C262.963 445.189 258.203 446.214 253.455 447.273C248.707 448.333 244.083 449.404 239.409 450.511C236.733 451.135 234.057 451.783 231.418 452.548C231.387 452.561 231.361 452.584 231.345 452.613C231.33 452.642 231.325 452.676 231.332 452.708C231.34 452.74 231.358 452.768 231.385 452.788C231.412 452.809 231.445 452.82 231.48 452.819C236.289 452.112 241.049 451.053 245.809 450.075C250.569 449.098 255.218 448.121 259.904 447.038C262.593 446.414 265.256 445.731 267.883 444.93C267.934 444.915 267.978 444.883 268.005 444.838C268.032 444.794 268.04 444.741 268.027 444.691C268.014 444.641 267.982 444.598 267.937 444.57C267.892 444.542 267.837 444.532 267.784 444.542Z" fill="#2B2A30"/>
<path d="M334.19 370.257L314.324 375.414C313.572 375.614 313.005 381.172 313.005 381.172C313.005 381.172 261.31 353.785 240.136 353.29C232.885 353.113 216.213 364.499 215.288 375.449C213.783 393.182 215.744 418.025 219.259 432.579C220.498 436.972 222.617 441.094 225.498 444.718L269.671 436.864C269.671 436.864 270.46 428.21 269.572 423.43C268.228 416.189 263.234 399.775 263.234 399.775C277.427 402.048 315.866 420.345 315.866 420.345C315.866 420.345 336.62 435.793 358.916 417.884L334.19 370.257Z" fill="#642AB6" fill-opacity="0.8"/>
<path d="M314.46 374.025C314.017 378.256 313.234 382.448 312.117 386.565C312.117 386.718 311.845 386.694 311.882 386.565C312.536 382.373 313.116 378.134 314.003 373.989C314.065 373.624 314.497 373.695 314.46 374.025Z" fill="#2B2A30"/>
<path d="M334.215 367.996C334.314 367.996 334.375 368.149 334.277 368.184C331.069 369.201 327.919 370.38 324.843 371.717C323.413 372.317 315.57 376.12 316.778 378.652C316.975 379.076 317.456 379.182 318.11 379.052C318.984 378.767 319.813 378.371 320.576 377.875C322.204 377.039 323.856 376.273 325.509 375.52C328.601 374.216 331.835 373.244 335.152 372.623C335.263 372.623 335.288 372.765 335.152 372.8C330.659 374.125 326.284 375.791 322.068 377.781C320.034 378.781 317.136 380.913 316.248 378.652C315.36 376.391 320.342 373.13 321.735 372.376C325.664 370.373 329.864 368.899 334.215 367.996Z" fill="#2B2A30"/>
<path d="M316.555 378.322C315.948 378.822 315.31 379.286 314.643 379.712C314.163 380.089 313.61 380.373 313.016 380.547C312.892 380.547 312.855 380.418 312.917 380.336C313.337 379.836 313.836 379.403 314.397 379.052C314.976 378.593 315.556 378.134 316.148 377.698C316.543 377.404 316.925 378.004 316.555 378.322Z" fill="#2B2A30"/>
<path d="M228.618 437.606C233.378 437.053 238.076 436.123 242.75 435.157C247.424 434.192 252.011 433.202 256.623 432.19C259.262 431.601 261.914 431.012 264.528 430.294C264.564 430.294 264.598 430.281 264.624 430.256C264.649 430.232 264.664 430.199 264.664 430.165C264.664 430.13 264.649 430.097 264.624 430.073C264.598 430.049 264.564 430.035 264.528 430.035C259.78 430.647 255.082 431.613 250.383 432.496C245.685 433.379 241.098 434.274 236.473 435.263C233.81 435.84 231.195 436.44 228.581 437.218C228.536 437.232 228.497 437.26 228.471 437.298C228.445 437.336 228.433 437.381 228.437 437.426C228.442 437.471 228.462 437.513 228.495 437.546C228.527 437.579 228.571 437.6 228.618 437.606Z" fill="#2B2A30"/>
<path opacity="0.1" d="M239.532 370.257C239.379 371.892 239.65 373.538 240.321 375.049C240.604 375.814 240.962 376.544 241.295 377.298C241.628 378.051 242.072 378.734 242.528 379.441C244.213 382.21 246.17 384.82 248.373 387.235C250.534 389.647 252.87 391.91 255.366 394.006C257.83 396.138 260.478 398.068 263.282 399.775C261.371 397.126 259.25 394.736 257.117 392.334C254.983 389.932 252.887 387.624 250.766 385.269C248.645 382.914 246.548 380.559 244.6 378.134C243.626 376.956 242.639 375.697 241.764 374.413C240.785 373.155 240.031 371.75 239.532 370.257Z" fill="#2B2A30"/>
<path d="M248.806 356.928C246.056 351.524 237.362 350.158 229.383 353.867C221.404 357.576 217.187 364.958 219.949 370.351C222.712 375.744 231.405 377.121 239.372 373.412C247.338 369.703 251.568 362.309 248.806 356.928Z" fill="#642AB6" fill-opacity="0.6"/>
<path opacity="0.1" d="M248.806 356.928C246.056 351.524 237.362 350.158 229.383 353.867C221.404 357.576 217.187 364.958 219.949 370.351C222.712 375.744 231.405 377.121 239.372 373.412C247.338 369.703 251.568 362.309 248.806 356.928Z" fill="#2B2A30"/>
<path d="M379.621 366.713C363.75 345.107 354.957 326.927 355.426 318.862C355.808 311.797 359.619 291.039 366.525 279.783C368.609 276.392 390.621 284.61 390.078 288.778C389.536 292.946 382.987 314.682 382.383 320.145C382.026 323.218 388.549 354.538 390.152 361.626C392.927 373.412 386.662 376.297 379.621 366.713Z" fill="#642AB6"/>
<path d="M376.056 264.547C374.823 265.724 374.219 265.136 374.515 262.251C374.811 259.366 378.523 248.122 374.318 247.262C370.113 246.403 365.118 262.216 365.02 267.067C365.155 271.338 365.663 275.592 366.536 279.783C368.164 276.863 372.801 270.199 376.056 264.547Z" fill="#D0D0D5"/>
<path d="M390.089 288.778C394.343 280.442 400.176 270.316 399.325 259.884C399.259 258.722 398.785 257.615 397.981 256.74C397.685 252.031 395.28 250.853 395.28 250.853C393.616 246.567 390.964 245.59 390.964 245.59C390.964 245.59 390.557 240.103 387.043 239.785C383.097 239.42 384.441 247.203 382.443 251.925C377.856 262.722 368.188 276.851 366.535 279.842L390.089 288.778Z" fill="#D0D0D5"/>
<path d="M385.972 266.407C387.348 263.259 388.502 260.025 389.425 256.729C390.195 253.067 390.677 249.356 390.867 245.626C390.862 245.611 390.86 245.596 390.862 245.581C390.864 245.566 390.87 245.551 390.879 245.539C390.888 245.526 390.9 245.516 390.914 245.509C390.928 245.502 390.944 245.499 390.96 245.499C390.976 245.499 390.991 245.502 391.006 245.509C391.02 245.516 391.032 245.526 391.041 245.539C391.05 245.551 391.056 245.566 391.058 245.581C391.06 245.596 391.058 245.611 391.052 245.626C391.441 252.869 389.735 260.075 386.12 266.454C386.046 266.607 385.91 266.56 385.972 266.407Z" fill="#2B2A30"/>
<path d="M392.397 269.987C393.47 266.808 395.307 261.203 395.172 250.794H395.233C396.229 257.324 395.303 263.99 392.557 270.046C392.471 270.234 392.323 270.199 392.397 269.987Z" fill="#2B2A30"/>
<path d="M395.885 271.858C397.297 266.941 397.994 261.862 397.957 256.764C397.957 256.764 398.019 256.764 398.031 256.764C398.549 263.557 397.932 266.089 396.083 271.941C396.009 272.153 395.824 272.07 395.885 271.858Z" fill="#2B2A30"/>
<path d="M390.091 288.778L366.537 279.782C363.975 281.005 361.834 282.906 360.371 285.257C357.905 289.166 353.354 316.389 355.142 324.113C356.931 331.837 372.284 360.001 380.644 369.456C389.005 378.91 392.508 372.046 391.114 364.051C389.721 356.056 383.518 322.664 383.542 320.663C383.567 318.661 389.992 300.705 390.941 296.996C391.891 293.287 390.091 288.778 390.091 288.778Z" fill="#642AB6" fill-opacity="0.6"/>
<path opacity="0.1" d="M380.669 369.445C374.33 362.286 363.959 344.318 358.533 332.697L387.106 341.728C388.746 350.841 390.485 360.261 391.138 364.099C392.532 372.035 389.03 378.899 380.669 369.445Z" fill="#2B2A30"/>
<path opacity="0.1" d="M389.004 294.418C385.761 292.994 382.431 291.734 379.139 290.497C375.846 289.261 372.541 288.048 369.273 286.847C367.374 286.164 365.475 285.47 363.564 284.846C363.441 284.846 363.404 284.916 363.564 284.975C366.832 286.365 370.174 287.613 373.491 288.884C376.808 290.156 380.064 291.404 383.356 292.617C385.243 293.311 387.142 293.983 389.066 294.583C389.128 294.642 389.226 294.524 389.004 294.418Z" fill="#2B2A30"/>
<path d="M330.034 367.596L359.014 417.048C362.04 417.665 365.199 417.12 367.806 415.529C378.572 409.442 396.33 394.759 402.989 381.513C407.773 371.976 403.951 364.369 396.576 361.402C394.714 360.661 370.408 353.278 361.69 354.043C352.172 355.155 342.991 358.107 334.708 362.721C332.749 363.949 331.142 365.624 330.034 367.596Z" fill="#642AB6" fill-opacity="0.6"/>
<path d="M326.951 367.937C326.84 367.219 331.07 365.1 331.674 365.312C332.279 365.524 362.084 416.86 362.158 417.237C362.232 417.613 357.041 420.015 356.671 419.591C356.301 419.168 327.087 368.915 326.951 367.937Z" fill="#642AB6" fill-opacity="0.6"/>
<path opacity="0.1" d="M326.951 367.937C326.84 367.219 331.07 365.1 331.674 365.312C332.279 365.524 362.084 416.86 362.158 417.237C362.232 417.613 357.041 420.015 356.671 419.591C356.301 419.168 327.087 368.915 326.951 367.937Z" fill="#642AB6"/>
<path d="M361.233 378.31L356.152 353.549L379.065 353.302L384.158 378.063L361.233 378.31Z" fill="#642AB6" fill-opacity="0.6"/>
<path opacity="0.2" d="M361.233 378.31L356.152 353.549L379.065 353.302L384.158 378.063L361.233 378.31Z" fill="#2B2A30"/>
<path opacity="0.1" d="M361.233 378.31L360.592 375.167L383.517 374.919L384.158 378.063L361.233 378.31Z" fill="#2B2A30"/>
<path opacity="0.1" d="M374.59 357.611C374.195 357.614 373.81 357.492 373.496 357.264C373.181 357.036 372.954 356.715 372.851 356.351C372.82 356.186 372.829 356.015 372.878 355.853C372.928 355.691 373.015 355.542 373.135 355.418C373.254 355.294 373.402 355.198 373.567 355.137C373.731 355.076 373.908 355.053 374.084 355.068C374.479 355.065 374.864 355.187 375.178 355.415C375.493 355.643 375.719 355.964 375.823 356.328C375.854 356.494 375.845 356.664 375.795 356.826C375.746 356.988 375.658 357.137 375.539 357.261C375.42 357.385 375.272 357.481 375.107 357.542C374.943 357.603 374.766 357.627 374.59 357.611Z" fill="#2B2A30"/>
<path opacity="0.1" d="M369.743 357.658C369.349 357.664 368.965 357.544 368.65 357.318C368.335 357.092 368.108 356.773 368.004 356.41C367.97 356.244 367.978 356.072 368.026 355.909C368.074 355.746 368.162 355.596 368.282 355.472C368.402 355.347 368.551 355.251 368.717 355.191C368.883 355.131 369.061 355.109 369.237 355.127C369.631 355.121 370.016 355.241 370.33 355.467C370.645 355.693 370.872 356.012 370.976 356.375C371.007 356.541 370.998 356.711 370.949 356.873C370.899 357.035 370.812 357.184 370.692 357.308C370.573 357.432 370.425 357.528 370.26 357.589C370.096 357.65 369.919 357.673 369.743 357.658Z" fill="#2B2A30"/>
<path opacity="0.1" d="M364.896 357.705C364.501 357.717 364.113 357.6 363.797 357.373C363.481 357.146 363.255 356.823 363.157 356.457C363.124 356.291 363.131 356.12 363.18 355.957C363.228 355.794 363.315 355.644 363.435 355.519C363.555 355.394 363.704 355.298 363.87 355.238C364.036 355.178 364.214 355.156 364.391 355.174C364.785 355.164 365.172 355.282 365.488 355.509C365.803 355.736 366.029 356.057 366.129 356.422C366.166 356.589 366.16 356.761 366.113 356.925C366.066 357.09 365.979 357.241 365.858 357.366C365.737 357.492 365.587 357.588 365.42 357.647C365.253 357.706 365.073 357.726 364.896 357.705Z" fill="#2B2A30"/>
<path opacity="0.1" d="M376.532 360.918C376.842 360.317 376.469 359.536 375.699 359.174C374.929 358.812 374.054 359.006 373.744 359.607C373.434 360.208 373.807 360.988 374.577 361.35C375.346 361.712 376.222 361.519 376.532 360.918Z" fill="#2B2A30"/>
<path opacity="0.1" d="M370.557 361.638C370.162 361.648 369.775 361.529 369.46 361.303C369.144 361.076 368.918 360.755 368.818 360.39C368.781 360.223 368.787 360.051 368.834 359.886C368.881 359.722 368.969 359.571 369.089 359.446C369.21 359.32 369.36 359.224 369.527 359.165C369.694 359.106 369.874 359.086 370.051 359.106C370.446 359.095 370.834 359.212 371.15 359.439C371.466 359.666 371.692 359.989 371.79 360.354C371.823 360.521 371.816 360.692 371.768 360.855C371.719 361.018 371.632 361.168 371.512 361.293C371.392 361.418 371.243 361.514 371.077 361.574C370.911 361.634 370.733 361.656 370.557 361.638Z" fill="#2B2A30"/>
<path opacity="0.1" d="M365.697 361.638C365.303 361.644 364.919 361.524 364.604 361.298C364.289 361.072 364.062 360.753 363.958 360.39C363.927 360.224 363.937 360.054 363.986 359.892C364.035 359.73 364.123 359.581 364.242 359.457C364.362 359.333 364.509 359.236 364.674 359.176C364.839 359.115 365.016 359.091 365.192 359.107C365.586 359.099 365.971 359.218 366.286 359.444C366.602 359.67 366.828 359.991 366.93 360.355C366.964 360.521 366.957 360.692 366.908 360.855C366.86 361.018 366.772 361.168 366.653 361.293C366.533 361.418 366.384 361.514 366.218 361.574C366.052 361.634 365.874 361.656 365.697 361.638Z" fill="#2B2A30"/>
<path opacity="0.1" d="M376.217 365.488C375.821 365.5 375.434 365.383 375.118 365.156C374.801 364.929 374.576 364.606 374.478 364.24C374.444 364.074 374.452 363.902 374.5 363.739C374.548 363.576 374.636 363.426 374.756 363.302C374.875 363.177 375.024 363.081 375.19 363.021C375.356 362.961 375.535 362.939 375.711 362.957C376.106 362.947 376.492 363.065 376.808 363.292C377.124 363.518 377.35 363.84 377.45 364.205C377.486 364.371 377.481 364.544 377.434 364.708C377.386 364.872 377.299 365.023 377.178 365.149C377.058 365.274 376.908 365.37 376.74 365.429C376.573 365.489 376.394 365.509 376.217 365.488Z" fill="#2B2A30"/>
<path opacity="0.1" d="M371.358 365.547C370.964 365.553 370.58 365.433 370.265 365.207C369.95 364.981 369.723 364.662 369.619 364.299C369.586 364.133 369.593 363.961 369.641 363.798C369.69 363.635 369.777 363.486 369.897 363.361C370.017 363.236 370.166 363.14 370.332 363.08C370.498 363.02 370.676 362.998 370.853 363.016C371.247 363.008 371.632 363.127 371.947 363.353C372.263 363.58 372.489 363.9 372.591 364.264C372.625 364.43 372.618 364.602 372.569 364.765C372.521 364.928 372.433 365.078 372.314 365.202C372.194 365.327 372.045 365.423 371.879 365.483C371.713 365.543 371.535 365.565 371.358 365.547Z" fill="#2B2A30"/>
<path opacity="0.1" d="M366.512 365.594C366.119 365.6 365.734 365.48 365.419 365.254C365.105 365.028 364.878 364.709 364.774 364.346C364.74 364.18 364.747 364.008 364.796 363.845C364.844 363.682 364.932 363.532 365.051 363.408C365.171 363.283 365.32 363.187 365.486 363.127C365.652 363.067 365.83 363.045 366.007 363.063C366.401 363.057 366.785 363.177 367.1 363.403C367.415 363.629 367.642 363.948 367.746 364.311C367.779 364.477 367.772 364.649 367.724 364.812C367.675 364.975 367.588 365.124 367.468 365.249C367.348 365.374 367.199 365.47 367.033 365.53C366.867 365.59 366.689 365.612 366.512 365.594Z" fill="#2B2A30"/>
<path d="M386.822 366.348C388.289 369.786 396.761 371.599 402.052 370.987C402.409 370.987 404.876 368.632 407.996 366.077C409.907 364.499 412.065 362.78 414.161 361.367C414.581 361.085 401.558 351.041 401.558 351.041C399.483 353.537 397.098 355.782 394.455 357.729C394.161 357.92 393.852 358.089 393.53 358.235L393.37 358.306C391.582 359.177 385.404 363.063 386.822 366.348Z" fill="#642AB6"/>
<path d="M413.521 360.649C409.55 362.486 399.45 366.218 394.283 359.648C393.95 359.233 393.653 358.792 393.396 358.329C393.445 358.295 393.499 358.268 393.556 358.247C393.877 358.105 394.186 357.939 394.481 357.752C397.115 355.796 399.492 353.543 401.559 351.041C401.559 351.041 410.968 358.282 413.521 360.649Z" fill="#2B2A30"/>
<path d="M429.083 354.868C424.742 358.8 408.637 363.263 403.532 361.367C396.132 358.624 391.36 350.605 395.664 343.706C399.832 337.03 420.932 331.554 425.951 334.004C433.35 337.606 435.471 349.063 429.083 354.868Z" fill="#642AB6"/>
<path d="M411.93 345.531C411.93 345.531 411.929 345.625 411.868 345.649C410.77 345.978 409.562 346.543 409.562 347.615H409.5C409.229 346.414 410.832 345.684 411.93 345.531Z" fill="#2B2A30"/>
<path d="M413.421 346.072C414.173 347.697 410.72 349.028 410.017 347.521C409.315 346.014 412.78 344.707 413.421 346.072Z" fill="#2B2A30"/>
<path d="M409.661 339.903C409.661 339.903 409.575 339.844 409.526 339.903C408.465 340.338 407.183 340.68 406.43 339.903C406.356 339.903 406.43 339.903 406.43 339.903C407.022 340.951 408.724 340.444 409.661 339.903Z" fill="#2B2A30"/>
<path d="M410.389 338.56C409.834 336.865 406.319 338.054 406.837 339.632C407.355 341.209 410.857 339.985 410.389 338.56Z" fill="#2B2A30"/>
<path d="M415.666 346.755C415.666 346.26 415.666 345.789 415.666 345.295C415.595 344.782 415.703 344.26 415.974 343.811C416.087 343.686 416.24 343.6 416.409 343.566C416.579 343.532 416.755 343.552 416.911 343.623C417.197 343.814 417.425 344.073 417.572 344.375C417.719 344.677 417.78 345.01 417.75 345.342C417.786 346.024 417.557 346.695 417.108 347.226C416.996 347.333 416.854 347.407 416.7 347.441C416.545 347.475 416.384 347.467 416.234 347.418C416.084 347.369 415.951 347.281 415.851 347.164C415.75 347.047 415.686 346.905 415.666 346.755Z" fill="#2B2A30"/>
<path d="M411.424 336.618C411.695 337.042 412.028 337.395 412.337 337.795C412.645 338.196 412.929 338.631 413.508 338.82C413.677 338.857 413.855 338.841 414.013 338.773C414.171 338.705 414.302 338.589 414.384 338.443C414.498 338.127 414.521 337.788 414.452 337.461C414.382 337.134 414.223 336.831 413.989 336.582C413.603 336.009 413.011 335.59 412.324 335.405C412.163 335.374 411.995 335.388 411.842 335.446C411.688 335.504 411.556 335.603 411.46 335.731C411.365 335.86 411.311 336.012 411.304 336.169C411.298 336.327 411.34 336.483 411.424 336.618Z" fill="#2B2A30"/>
<path d="M403.544 349.169C403.404 347.71 402.91 346.303 402.102 345.059C402.102 344.93 402.262 344.73 402.373 344.671L404.667 343.87C404.395 343.646 403.113 342.457 403.544 342.316C407.268 341.02 411.118 340.085 415.038 339.525C415.059 339.533 415.078 339.546 415.092 339.564C415.105 339.582 415.112 339.603 415.112 339.625C415.112 339.647 415.105 339.669 415.092 339.687C415.078 339.705 415.059 339.718 415.038 339.726C411.609 340.903 407.971 341.574 404.506 342.752C404.99 343.165 405.405 343.645 405.739 344.176C405.739 344.306 403.273 344.894 402.915 345.071C403.798 346.202 404.183 347.617 403.988 349.016C403.902 349.557 403.544 349.863 403.544 349.169Z" fill="#2B2A30"/>
<path d="M401.028 347.968C401.028 347.309 403.075 345.484 403.643 346.426C404.018 347.21 404.181 348.072 404.116 348.932C404.051 349.792 403.761 350.622 403.273 351.347C402.212 352.607 402.039 349.287 401.62 348.898C401.201 348.51 401.053 348.451 401.028 347.968Z" fill="#2B2A30"/>
<path d="M416.653 359.86C414.754 356.327 418.429 352.571 422.462 351.924C422.462 351.924 416.764 342.822 424.669 339.031C423.161 338.713 421.745 338.082 420.522 337.183C419.298 336.283 418.297 335.137 417.591 333.827L414.717 334.404C414.582 333.285 417.048 331.024 420.452 332.496C423.012 331.647 425.817 331.774 428.282 332.849C429.325 333.332 430.2 334.092 430.802 335.038C431.404 335.985 431.706 337.077 431.673 338.183C433.705 339.341 435.186 341.207 435.805 343.387C436.105 344.532 436.115 345.728 435.834 346.877C435.553 348.026 434.989 349.094 434.189 349.993C434.189 349.993 435.422 355.162 432.204 357.446C431.313 358.109 430.286 358.585 429.189 358.843C428.093 359.101 426.952 359.134 425.84 358.941C425.84 358.941 424.99 360.719 421.672 361.355C419.551 361.767 417.233 360.908 416.653 359.86Z" fill="#2B2A30"/>
<path d="M425.494 338.949C424.799 339.14 424.129 339.405 423.496 339.738C422.862 340.062 422.269 340.457 421.733 340.915C420.669 341.787 419.991 343.011 419.834 344.341C419.73 345.688 419.958 347.039 420.5 348.286C420.808 348.91 421.067 349.546 421.4 350.146C421.733 350.747 422.115 351.324 422.46 351.959C422.029 351.406 421.609 350.841 421.227 350.276C420.845 349.71 420.537 349.039 420.179 348.427C419.552 347.136 419.272 345.715 419.365 344.294C419.551 342.85 420.327 341.534 421.523 340.632C422.676 339.759 424.042 339.18 425.494 338.949Z" fill="#2B2A30"/>
<path d="M434.187 349.993C434.737 351.22 435.011 352.544 434.989 353.879C434.998 355.257 434.501 356.594 433.583 357.658C433.09 358.156 432.515 358.573 431.881 358.895C431.267 359.241 430.596 359.483 429.896 359.613C428.503 359.883 427.055 359.644 425.839 358.942C427.093 359.451 428.486 359.558 429.81 359.248C431.107 358.933 432.283 358.271 433.201 357.34C433.642 356.873 433.985 356.329 434.212 355.739C434.426 355.134 434.554 354.504 434.594 353.867C434.68 352.563 434.543 351.255 434.187 349.993Z" fill="#2B2A30"/>
<path d="M431.671 338.183C431.609 337.13 431.372 336.093 430.969 335.11C430.584 334.149 429.942 333.3 429.106 332.65C428.247 332.028 427.238 331.623 426.171 331.472C425.08 331.319 423.971 331.319 422.879 331.472C423.955 331.133 425.092 331.008 426.221 331.107C427.39 331.17 428.51 331.577 429.427 332.273C430.343 332.969 431.011 333.919 431.338 334.993C431.686 336.021 431.8 337.109 431.671 338.183Z" fill="#2B2A30"/>
<path d="M418.551 335.899C419.404 336.801 420.408 337.561 421.523 338.148C422.073 338.434 422.662 338.644 423.274 338.772C423.898 338.897 424.535 338.957 425.173 338.949C424.537 339.148 423.864 339.212 423.2 339.137C422.531 339.072 421.882 338.884 421.288 338.584C420.696 338.274 420.159 337.877 419.698 337.407C419.234 336.965 418.847 336.457 418.551 335.899Z" fill="#2B2A30"/>
<path d="M414.877 357.175C414.877 357.175 421.302 358.211 421.129 360.837C420.957 363.463 412.781 364.228 410.61 362.215C410.312 361.975 410.067 361.679 409.891 361.346C409.716 361.013 409.613 360.65 409.589 360.278C409.564 359.906 409.619 359.533 409.751 359.182C409.882 358.831 410.086 358.509 410.351 358.235L414.877 357.175Z" fill="#642AB6"/>
<path d="M418.823 361.002C418.823 361.002 418.823 361.072 418.761 361.002C417.956 360.399 417.028 359.964 416.036 359.725C415.044 359.485 414.011 359.447 413.002 359.612C413.233 359.63 413.457 359.695 413.658 359.803C413.86 359.912 414.034 360.061 414.169 360.24C414.304 360.419 414.397 360.625 414.44 360.842C414.483 361.059 414.477 361.282 414.42 361.496C414.42 361.555 414.322 361.496 414.309 361.496C414.257 361.148 414.094 360.824 413.843 360.567C413.591 360.31 413.264 360.133 412.904 360.06C412.304 359.94 411.691 359.885 411.079 359.895C410.869 359.895 410.82 359.577 411.079 359.554C413.323 358.506 417.38 358.753 418.823 361.002Z" fill="#2B2A30"/>
<g opacity="0.2">
<path d="M408.957 351.453C408.904 351.481 408.864 351.527 408.846 351.582C408.828 351.637 408.832 351.696 408.859 351.748C408.879 351.788 408.912 351.821 408.952 351.844C408.993 351.866 409.039 351.876 409.086 351.873C409.133 351.87 409.177 351.853 409.214 351.826C409.251 351.798 409.278 351.761 409.292 351.718C409.307 351.676 409.307 351.63 409.294 351.587C409.281 351.544 409.255 351.506 409.219 351.478C409.183 351.449 409.138 351.432 409.092 351.427C409.045 351.423 408.998 351.432 408.957 351.453Z" fill="#2B2A30"/>
<path d="M406.909 347.321C406.856 347.348 406.817 347.394 406.798 347.449C406.78 347.504 406.784 347.563 406.811 347.615C406.825 347.64 406.844 347.663 406.867 347.68C406.891 347.698 406.918 347.711 406.946 347.719C406.975 347.727 407.005 347.729 407.035 347.725C407.065 347.721 407.093 347.712 407.119 347.698C407.172 347.67 407.212 347.624 407.23 347.569C407.249 347.514 407.244 347.455 407.218 347.403C407.204 347.378 407.184 347.356 407.161 347.338C407.138 347.32 407.111 347.307 407.082 347.299C407.053 347.292 407.023 347.29 406.993 347.293C406.964 347.297 406.935 347.306 406.909 347.321Z" fill="#2B2A30"/>
<path d="M406.206 349.487C406.18 349.5 406.156 349.519 406.138 349.541C406.119 349.563 406.105 349.589 406.097 349.617C406.089 349.644 406.087 349.673 406.091 349.701C406.095 349.729 406.104 349.757 406.12 349.781C406.148 349.832 406.197 349.87 406.254 349.887C406.311 349.905 406.374 349.901 406.428 349.875C406.473 349.843 406.504 349.796 406.516 349.744C406.528 349.692 406.519 349.637 406.492 349.59C406.466 349.543 406.422 349.506 406.369 349.487C406.317 349.469 406.259 349.468 406.206 349.487Z" fill="#2B2A30"/>
<path d="M410.561 350.5C410.518 350.519 410.483 350.55 410.46 350.589C410.437 350.628 410.426 350.672 410.429 350.717C410.433 350.761 410.45 350.804 410.479 350.839C410.508 350.874 410.547 350.9 410.592 350.914C410.636 350.927 410.684 350.928 410.729 350.915C410.774 350.903 410.814 350.878 410.844 350.843C410.873 350.809 410.892 350.767 410.896 350.722C410.901 350.678 410.891 350.633 410.869 350.594C410.84 350.543 410.792 350.505 410.734 350.488C410.677 350.47 410.615 350.474 410.561 350.5Z" fill="#2B2A30"/>
<path d="M408.365 349.169C408.323 349.189 408.288 349.22 408.265 349.258C408.241 349.297 408.231 349.342 408.234 349.386C408.237 349.431 408.255 349.473 408.284 349.508C408.312 349.544 408.352 349.57 408.396 349.583C408.441 349.597 408.489 349.597 408.534 349.585C408.579 349.572 408.618 349.547 408.648 349.513C408.678 349.478 408.696 349.436 408.701 349.392C408.705 349.347 408.696 349.302 408.673 349.263C408.645 349.213 408.597 349.175 408.539 349.157C408.482 349.14 408.419 349.144 408.365 349.169Z" fill="#2B2A30"/>
<path d="M405.801 337.76C405.767 337.768 405.736 337.784 405.709 337.806C405.682 337.828 405.661 337.855 405.647 337.885C405.633 337.916 405.626 337.949 405.627 337.983C405.628 338.016 405.637 338.049 405.653 338.078C405.669 338.108 405.692 338.134 405.72 338.154C405.748 338.175 405.78 338.188 405.814 338.195C405.849 338.202 405.884 338.201 405.918 338.193C405.952 338.185 405.984 338.17 406.011 338.148C406.064 338.121 406.103 338.075 406.122 338.02C406.14 337.965 406.136 337.906 406.109 337.854C406.08 337.803 406.032 337.765 405.975 337.748C405.917 337.73 405.855 337.735 405.801 337.76Z" fill="#2B2A30"/>
<path d="M405.479 339.844C405.437 339.863 405.402 339.895 405.379 339.933C405.356 339.972 405.345 340.016 405.348 340.061C405.352 340.106 405.369 340.148 405.398 340.183C405.427 340.218 405.466 340.244 405.511 340.258C405.555 340.272 405.603 340.272 405.648 340.26C405.693 340.247 405.733 340.222 405.763 340.188C405.792 340.153 405.811 340.111 405.815 340.067C405.82 340.022 405.81 339.977 405.788 339.938C405.759 339.887 405.711 339.849 405.653 339.832C405.596 339.814 405.534 339.819 405.479 339.844Z" fill="#2B2A30"/>
<path d="M403.938 340.126C403.885 340.154 403.845 340.2 403.827 340.254C403.808 340.309 403.813 340.369 403.839 340.421C403.852 340.447 403.871 340.47 403.893 340.489C403.916 340.508 403.943 340.522 403.972 340.531C404.001 340.54 404.031 340.543 404.061 340.54C404.092 340.538 404.121 340.529 404.147 340.515C404.189 340.482 404.217 340.437 404.228 340.387C404.238 340.337 404.231 340.285 404.206 340.24C404.182 340.195 404.142 340.159 404.093 340.138C404.044 340.117 403.989 340.113 403.938 340.126Z" fill="#2B2A30"/>
<path d="M404.136 338.349C404.094 338.368 404.059 338.399 404.035 338.438C404.012 338.477 404.001 338.521 404.005 338.566C404.008 338.61 404.025 338.653 404.054 338.688C404.083 338.723 404.122 338.749 404.167 338.763C404.211 338.777 404.259 338.777 404.304 338.765C404.349 338.752 404.389 338.727 404.419 338.692C404.449 338.658 404.467 338.616 404.471 338.571C404.476 338.527 404.466 338.482 404.444 338.443C404.415 338.392 404.367 338.354 404.31 338.337C404.252 338.319 404.19 338.324 404.136 338.349Z" fill="#2B2A30"/>
</g>
<path d="M401.94 372.294C401.94 372.294 408.008 368.491 407.81 367.702C407.613 366.913 400.091 366.219 397.513 363.852C394.936 361.485 393.986 357.965 393.69 357.564C393.394 357.164 388.24 360.979 387.216 362.05C386.478 362.666 386.006 363.521 385.892 364.451C385.778 365.38 386.03 366.317 386.6 367.078C389.226 370.822 398.697 373.201 401.94 372.294Z" fill="#642AB6" fill-opacity="0.6"/>
<path d="M405.862 367.926C404.164 368.833 402.655 370.03 401.41 371.458C403.111 370.555 404.621 369.357 405.862 367.926Z" fill="#2B2A30"/>
<path d="M393.469 358.506C391.716 359.287 390.131 360.373 388.795 361.709C390.548 360.928 392.133 359.842 393.469 358.506Z" fill="#2B2A30"/>
<path d="M393.369 360.602C391.113 361.737 389.037 363.172 387.203 364.864C389.452 363.718 391.526 362.284 393.369 360.602Z" fill="#2B2A30"/>
<path d="M394.666 362.815C392.415 363.958 390.34 365.392 388.5 367.078C390.751 365.935 392.826 364.501 394.666 362.815Z" fill="#2B2A30"/>
<path d="M397.095 364.84C394.843 365.983 392.768 367.417 390.929 369.103C393.178 367.956 395.252 366.522 397.095 364.84Z" fill="#2B2A30"/>
<path d="M399.648 366.265C397.484 367.33 395.498 368.695 393.753 370.316C395.911 369.243 397.897 367.879 399.648 366.265Z" fill="#2B2A30"/>
<path d="M402.68 367.29C400.782 368.28 399.065 369.561 397.6 371.081C399.5 370.093 401.217 368.812 402.68 367.29Z" fill="#2B2A30"/>
<path d="M401.188 377.804C399.807 378.312 398.306 378.451 396.848 378.205C392.137 377.439 386.625 372.718 384.935 366.595C383.862 362.674 384.491 359.778 386.02 357.847C386.887 362.023 388.691 365.97 391.31 369.415C393.929 372.861 397.299 375.723 401.188 377.804Z" fill="#6B6E70"/>
<path d="M443.807 361.638C448.604 347.567 442.636 327.798 419.884 325.538C404.161 323.96 390.09 333.662 386.07 345.154C380.385 361.402 393.679 378.758 408.341 380.912C419.477 382.537 438.764 376.462 443.807 361.638ZM406.812 371.375C396.145 369.267 386.033 355.091 389.683 342.281C391.11 337.462 394.325 333.304 398.727 330.583C403.129 327.861 408.418 326.763 413.607 327.492C430.119 329.847 436.112 345.448 433.054 356.539C429.835 368.243 414.951 372.918 406.861 371.328L406.812 371.375Z" fill="#642AB6" fill-opacity="0.6"/>
<path opacity="0.1" d="M406.862 371.328C396.195 369.22 386.083 355.044 389.733 342.233C391.169 337.433 394.38 333.293 398.77 330.582C403.161 327.871 408.433 326.773 413.607 327.492C430.119 329.847 436.113 345.448 433.054 356.539C429.836 368.243 414.951 372.917 406.862 371.328Z" fill="#6B6E70"/>
<path opacity="0.1" d="M406.862 371.328C396.195 369.22 386.083 355.044 389.733 342.233C391.169 337.433 394.38 333.293 398.77 330.582C403.161 327.871 408.433 326.773 413.607 327.492C430.119 329.847 436.113 345.448 433.054 356.539C429.836 368.243 414.951 372.917 406.862 371.328Z" fill="#6B6E70"/>
<g opacity="0.2">
<path d="M431.611 340.597C420.829 336.247 409.582 333.037 398.068 331.025C400.528 329.342 403.337 328.182 406.306 327.622C413.169 329.167 419.92 331.134 426.518 333.509C428.673 335.541 430.402 337.946 431.611 340.597Z" fill="white"/>
<path d="M415.777 370.975C412.865 371.697 409.826 371.817 406.861 371.328C403.48 370.557 400.379 368.93 397.884 366.619C403.949 367.663 409.929 369.119 415.777 370.975Z" fill="white"/>
<path d="M433.128 344.977C420.791 339.758 407.795 336.093 394.468 334.074C394.698 333.815 394.945 333.568 395.208 333.333C408.178 335.362 420.831 338.938 432.869 343.977C432.967 344.306 433.054 344.648 433.128 344.977Z" fill="white"/>
<path d="M425.297 366.901C414.473 362.649 403.121 359.744 391.52 358.259C391.372 357.976 391.236 357.682 391.101 357.376C403.112 358.889 414.862 361.906 426.049 366.348L425.297 366.901Z" fill="white"/>
<path d="M419.859 369.751C419.477 369.892 419.094 370.033 418.7 370.151C411.236 367.623 403.552 365.732 395.738 364.499C395.467 364.205 395.195 363.899 394.937 363.581C403.435 364.858 411.782 366.924 419.859 369.751Z" fill="white"/>
<path d="M430.81 361.426C417.587 355.725 403.532 351.977 389.129 350.311C389.003 349.323 388.958 348.327 388.993 347.333C403.924 349.061 418.484 352.989 432.154 358.977C431.78 359.829 431.33 360.648 430.81 361.426Z" fill="white"/>
</g>
<path d="M421.499 383.892C425.322 383.892 432.018 381.419 433.831 376.957C435.582 372.741 433.683 367.337 425.853 367.596C420.451 367.772 415.531 371.128 414.063 374.566C412.016 379.441 416.468 383.868 421.499 383.892Z" fill="#642AB6" fill-opacity="0.6"/>
<path opacity="0.1" d="M421.499 383.892C425.322 383.892 432.018 381.419 433.831 376.957C435.582 372.741 433.683 367.337 425.853 367.596C420.451 367.772 415.531 371.128 414.063 374.566C412.016 379.441 416.468 383.868 421.499 383.892Z" fill="#2B2A30"/>
<path d="M423.114 384.421C426.049 384.421 431.179 382.514 432.61 379.087C433.954 375.849 432.486 371.693 426.444 371.893C422.288 372.034 418.514 374.601 417.38 377.251C415.826 380.995 419.242 384.398 423.114 384.421Z" fill="#642AB6" fill-opacity="0.6"/>
<path d="M390.459 390.32C368.447 389.967 338.136 377.604 330.996 373.071C320.132 366.159 324.386 326.645 324.707 318.673C324.855 315.271 356.67 321.111 356.597 324.749C356.535 327.928 352.169 358.294 353.39 358.989C354.389 359.554 376.438 370.763 391.113 379.005C403.691 386.023 396.218 390.415 390.459 390.32Z" fill="#642AB6"/>
<path d="M355.783 331.861C355.783 331.861 356.388 326.668 356.412 326.327C356.676 324.544 357.208 322.808 357.991 321.17C360.642 314.694 362.776 297.291 347.743 284.01C341.972 278.912 335.72 280.56 340.726 286.859C344.253 291.298 347.09 294.077 347.817 295.843C347.817 295.843 339.185 293.736 335.214 296.926C331.767 299.722 328.532 302.747 325.534 305.981C326.023 306.643 326.558 307.272 327.137 307.865C325.702 309.262 324.709 311.018 324.273 312.93C323.837 314.842 323.974 316.833 324.67 318.674L324.116 327.516L355.783 331.861Z" fill="#525560"/>
<path d="M359.495 314.6C358.201 311.173 355.34 303.932 350.863 298.798C345.869 293.088 334.635 283.374 330.257 286.942C327.051 289.556 330.997 293.618 330.997 293.618C330.997 293.618 325.472 290.545 323.117 293.512C320.959 296.208 324.214 299.187 324.214 299.187C324.214 299.187 320.515 297.868 318.986 300.847C317.124 304.438 325.152 306.605 326.57 311.797C326.866 312.963 359.495 314.6 359.495 314.6Z" fill="#D0D0D5"/>
<path d="M345.4 304.839C341.956 299.789 336.978 295.865 331.132 293.594C330.984 293.594 330.861 293.594 330.984 293.7C336.23 296.859 341.055 300.615 345.351 304.886C345.351 304.886 345.425 304.874 345.4 304.839Z" fill="#2B2A30"/>
<path d="M339.222 309.49C337.41 307.017 331.083 301.177 324.276 299.069C324.128 299.069 324.005 299.069 324.141 299.187C329.545 302.083 334.588 305.555 339.173 309.537C339.173 309.537 339.247 309.525 339.222 309.49Z" fill="#2B2A30"/>
<path d="M355.784 331.86L324.091 327.492C324.091 327.492 320.885 329.729 320.564 337.748C320.244 345.766 323.388 368.549 329.197 373.071C335.005 377.592 363.405 388.318 383.456 390.591C403.508 392.863 400.055 382.537 390.855 378.181C381.656 373.824 354.489 358.777 354.144 358.259C353.798 357.74 356.968 344 357.214 339.149C357.461 334.298 355.784 331.86 355.784 331.86Z" fill="#642AB6" fill-opacity="0.6"/>
<path d="M358.656 360.932C360.259 362.027 361.899 363.039 363.589 364.04C365.278 365.041 366.919 365.995 368.608 366.948C370.297 367.902 372.012 368.809 373.738 369.668L376.352 370.975C377.24 371.375 378.103 371.811 379.016 372.153C378.214 371.599 377.401 371.093 376.55 370.563L374.083 369.044C372.443 368.043 370.754 367.09 369.064 366.136C367.375 365.182 365.661 364.287 363.922 363.416C362.183 362.545 360.444 361.709 358.656 360.932Z" fill="#2B2A30"/>
<path d="M373.972 369.362C374.611 369.633 375.276 369.846 375.957 369.998C376.636 370.153 377.324 370.271 378.016 370.351C377.728 370.151 377.413 369.989 377.079 369.868C376.091 369.495 375.033 369.323 373.972 369.362Z" fill="#2B2A30"/>
<path d="M332.315 374.978C333.894 375.896 335.546 376.709 337.186 377.533C338.827 378.357 340.516 379.087 342.205 379.817C345.572 381.289 349.037 382.572 352.515 383.785C355.992 384.998 359.556 386.034 363.157 386.905C366.743 387.811 370.378 388.53 374.046 389.06C372.258 388.577 370.445 388.212 368.682 387.706C366.918 387.2 365.118 386.776 363.354 386.246L358.064 384.68C356.313 384.103 354.562 383.562 352.835 382.949C349.346 381.772 345.905 380.512 342.489 379.193C339.073 377.875 335.67 376.462 332.315 374.978Z" fill="#642AB6" fill-opacity="0.8"/>
<path d="M367.646 387.695C368.704 388.666 369.965 389.412 371.346 389.885C370.824 389.391 370.24 388.96 369.607 388.601C368.99 388.233 368.332 387.929 367.646 387.695Z" fill="#2B2A30"/>
<path opacity="0.1" d="M353.107 336.582C349.617 335.887 346.065 335.404 342.526 334.863C338.987 334.321 335.522 333.897 332.019 333.426C330.009 333.156 327.999 332.885 325.989 332.685C325.854 332.685 325.841 332.791 325.989 332.814C329.479 333.473 333.031 333.992 336.57 334.521C340.109 335.051 343.562 335.581 347.064 336.064C349.074 336.335 351.084 336.582 353.094 336.758C353.279 336.782 353.292 336.617 353.107 336.582Z" fill="#2B2A30"/>
</svg>
