<svg width="14" height="14" viewBox="0 0 14 14" fill="none" xmlns="http://www.w3.org/2000/svg">
<g clip-path="url(#clip0_2237_139)">
<path d="M10.465 10.465C9.46789 11.2251 8.25369 11.6462 7.00004 11.6667C2.91671 11.6667 0.583374 6.99999 0.583374 6.99999C1.30898 5.64777 2.31537 4.46635 3.53504 3.53499M5.77504 2.47333C6.17657 2.37934 6.58766 2.33236 7.00004 2.33333C11.0834 2.33333 13.4167 6.99999 13.4167 6.99999C13.0626 7.66243 12.6403 8.28609 12.1567 8.86083M8.23671 8.23666C8.0765 8.4086 7.8833 8.5465 7.66863 8.64215C7.45396 8.7378 7.22223 8.78923 6.98726 8.79337C6.75229 8.79752 6.51889 8.7543 6.30098 8.66628C6.08307 8.57826 5.88513 8.44726 5.71895 8.28108C5.55277 8.11491 5.42177 7.91696 5.33375 7.69905C5.24574 7.48115 5.20251 7.24775 5.20666 7.01277C5.21081 6.7778 5.26224 6.54607 5.35789 6.33141C5.45353 6.11674 5.59144 5.92354 5.76337 5.76333" stroke="#323232" stroke-width="2" stroke-linecap="round" stroke-linejoin="round"/>
<path d="M0.583374 0.583328L13.4167 13.4167" stroke="#323232" stroke-width="2" stroke-linecap="round" stroke-linejoin="round"/>
</g>
<defs>
<clipPath id="clip0_2237_139">
<rect width="14" height="14" fill="white"/>
</clipPath>
</defs>
</svg>
