<svg width="474" height="114" viewBox="0 0 474 114" fill="none" xmlns="http://www.w3.org/2000/svg">
<rect x="1" y="1" width="472" height="112" rx="4.71669" stroke="black" stroke-width="1.17917"/>
<path d="M225.333 72C224.417 72 223.632 71.6736 222.979 71.0208C222.326 70.3681 222 69.5833 222 68.6667V45.3333C222 44.4167 222.326 43.6319 222.979 42.9792C223.632 42.3264 224.417 42 225.333 42H248.667C249.583 42 250.368 42.3264 251.021 42.9792C251.674 43.6319 252 44.4167 252 45.3333V68.6667C252 69.5833 251.674 70.3681 251.021 71.0208C250.368 71.6736 249.583 72 248.667 72H225.333ZM227 65.3333H247L240.75 57L235.75 63.6667L232 58.6667L227 65.3333Z" fill="#642AB6" fill-opacity="0.6"/>
</svg>
