<svg width="55" height="55" viewBox="0 0 55 55" fill="none" xmlns="http://www.w3.org/2000/svg">
<g clip-path="url(#clip0_402_2172)">
<rect width="55" height="55" fill="white"/>
<path d="M50.9287 0H4.06055C1.81543 0 0 1.77246 0 3.96387V51.0254C0 53.2168 1.81543 55 4.06055 55H50.9287C53.1738 55 55 53.2168 55 51.0361V3.96387C55 1.77246 53.1738 0 50.9287 0ZM16.3174 46.8682H8.15332V20.6143H16.3174V46.8682ZM12.2354 17.0371C9.61426 17.0371 7.49805 14.9209 7.49805 12.3105C7.49805 9.7002 9.61426 7.58398 12.2354 7.58398C14.8457 7.58398 16.9619 9.7002 16.9619 12.3105C16.9619 14.9102 14.8457 17.0371 12.2354 17.0371ZM46.8682 46.8682H38.7148V34.1064C38.7148 31.0664 38.6611 27.1455 34.4717 27.1455C30.2285 27.1455 29.584 30.4648 29.584 33.8916V46.8682H21.4414V20.6143H29.2617V24.2022H29.3691C30.4541 22.1397 33.1182 19.959 37.082 19.959C45.3428 19.959 46.8682 25.3945 46.8682 32.4629V46.8682Z" fill="#1340E6" fill-opacity="0.86"/>
</g>
<defs>
<clipPath id="clip0_402_2172">
<rect width="55" height="55" fill="white"/>
</clipPath>
</defs>
</svg>
