<svg width="150" height="59" viewBox="0 0 150 59" fill="none" xmlns="http://www.w3.org/2000/svg">
<rect width="149.091" height="58.0176" fill="white"/>
<path d="M26.7207 20V14.624H28.6199V16.0666C28.6199 16.9038 28.7064 17.4919 28.8794 17.8309C29.0524 18.1699 29.3533 18.3394 29.7823 18.3394C30.1144 18.3394 30.3808 18.2011 30.5814 17.9243C30.789 17.6475 30.8928 17.2774 30.8928 16.8138C30.8928 16.4194 30.8201 15.9905 30.6749 15.5269C30.5365 15.0564 30.367 14.6689 30.1663 14.3645C29.9726 14.0601 29.4709 13.3958 28.6614 12.3718C27.8242 11.3201 27.2673 10.476 26.9905 9.83948C26.7137 9.19602 26.5754 8.44531 26.5754 7.58736C26.5754 6.56335 26.8037 5.72615 27.2603 5.07577C27.7239 4.42538 28.3155 4.10019 29.0351 4.10019C29.637 4.10019 30.1628 4.34236 30.6126 4.82668V4.35965H32.5015V9.02996H30.6126V7.84682C30.6126 7.19643 30.5296 6.7294 30.3635 6.44572C30.1974 6.15513 29.9345 6.00983 29.5747 6.00983C28.9659 6.00983 28.6614 6.39383 28.6614 7.16184C28.6614 7.60465 28.7514 8.06131 28.9313 8.5318C29.1112 8.99537 29.426 9.50391 29.8757 10.0574L30.8513 11.2613C32.325 13.0879 33.0619 14.8315 33.0619 16.4921C33.0619 17.5784 32.7955 18.4778 32.2628 19.1905C31.7369 19.9031 31.0796 20.2595 30.2908 20.2595C29.6474 20.2595 29.0904 20.0104 28.6199 19.5122V20H26.7207ZM41.5515 18.1941V20H38.7493V19.0659H38.7078C38.2719 19.7717 37.6838 20.1245 36.9434 20.1245C36.2585 20.1245 35.698 19.8166 35.2621 19.2009C34.8262 18.5782 34.6083 17.7686 34.6083 16.7723C34.6083 15.6653 34.8505 14.8142 35.3348 14.2192C35.8191 13.6242 36.4384 13.3266 37.1925 13.3266C37.8083 13.3266 38.3272 13.5826 38.7493 14.0947V12.2162C38.7493 11.4966 38.6594 11.0399 38.4795 10.8462C38.3065 10.6455 38.0643 10.5452 37.753 10.5452C37.1095 10.5452 36.7532 11.0122 36.684 11.9463L34.8781 11.4378C35.0165 10.6144 35.3486 9.97786 35.8745 9.52813C36.4003 9.07148 37.0472 8.84315 37.8152 8.84315C38.6455 8.84315 39.334 9.11299 39.8805 9.65267C40.4271 10.1854 40.7004 10.9223 40.7004 11.8633V18.1941H41.5515ZM38.7493 17.8517V15.4542C38.4587 15.1152 38.1335 14.9457 37.7737 14.9457C37.0334 14.9457 36.6632 15.5338 36.6632 16.71C36.6632 17.8517 37.0334 18.4225 37.7737 18.4225C38.1266 18.4225 38.4518 18.2322 38.7493 17.8517ZM42.4648 20V18.1941H43.4923V10.8981H42.4648V9.09223H43.4923V7.40054C43.4923 6.39037 43.724 5.58777 44.1876 4.99274C44.6512 4.39771 45.3119 4.10019 46.1699 4.10019C47.353 4.10019 48.1453 4.74366 48.5466 6.03059L46.7615 6.61178L46.6992 6.43535C46.5539 6.01329 46.3325 5.80226 46.035 5.80226C45.779 5.80226 45.6164 5.92334 45.5472 6.16551C45.478 6.40767 45.4434 6.81935 45.4434 7.40054V9.09223H46.8237V10.8981H45.4434V18.1941H46.9275V20H42.4648ZM51.9922 16.71L53.715 17.3431C53.4798 18.2772 53.1131 18.9967 52.6149 19.5018C52.1168 20.0069 51.5459 20.2595 50.9025 20.2595C49.8646 20.2595 49.1035 19.8132 48.6192 18.9206C48.1349 18.0212 47.8927 16.5959 47.8927 14.6447C47.8927 12.6866 48.1349 11.2302 48.6192 10.2754C49.1035 9.32056 49.8577 8.84315 50.8817 8.84315C51.7258 8.84315 52.4143 9.23753 52.947 10.0263C53.4867 10.8081 53.7566 11.9429 53.7566 13.4304V15.091H49.9477V15.558C49.9477 16.5336 50.0238 17.2601 50.176 17.7375C50.3282 18.208 50.5842 18.4432 50.944 18.4432C51.5459 18.4432 51.8954 17.8655 51.9922 16.71ZM49.9477 13.5342H51.795V12.5794C51.795 11.2233 51.4837 10.5452 50.861 10.5452C50.5081 10.5452 50.2659 10.7459 50.1345 11.1472C50.0099 11.5485 49.9477 12.1885 49.9477 13.0672V13.5342Z" fill="black"/>
<path d="M61.8164 30.0411C62.4034 30.0411 62.9554 29.8126 63.37 29.3974C63.6545 29.1135 63.8352 28.7681 63.9308 28.405L65.0847 29.5583C65.4993 29.9735 66.0513 30.2019 66.6377 30.2019C67.2248 30.2019 67.7762 29.9735 68.1908 29.5583C68.606 29.1436 68.8345 28.5917 68.8345 28.0052C68.8345 27.4181 68.606 26.8667 68.1908 26.4515L67.1995 25.4602C67.5696 25.3625 67.9124 25.1769 68.1908 24.8984C68.606 24.4832 68.8345 23.9318 68.8345 23.3447C68.8345 22.7582 68.606 22.2062 68.1908 21.7916L66.8107 20.4116C67.1814 20.3138 67.5241 20.1282 67.8026 19.8497C68.2177 19.4351 68.4462 18.8837 68.4462 18.2966C68.4462 17.7096 68.2177 17.1581 67.8026 16.7435L63.9077 12.8481V9.08237C63.9077 8.77924 63.6617 8.5332 63.3586 8.5332C63.0555 8.5332 62.8094 8.77924 62.8094 9.08237V12.004C62.0136 11.6943 61.0459 11.8503 60.4243 12.4714C59.7428 13.154 59.6131 14.1728 60.0174 14.9933C59.5912 15.0685 59.1859 15.2629 58.8706 15.5787C58.194 16.2558 58.0611 17.2646 58.4544 18.0824C58.0266 18.1642 57.6323 18.3702 57.3176 18.6849C56.641 19.3621 56.5075 20.3715 56.9013 21.1892C56.4729 21.271 56.0792 21.4769 55.7645 21.7916C55.3493 22.2063 55.1208 22.7582 55.1208 23.3447C55.1208 23.9318 55.3493 24.4832 55.7645 24.8984L60.2634 29.3973C60.6779 29.8126 61.2299 30.0411 61.8164 30.0411ZM61.2007 13.248C61.4083 13.041 61.684 12.9267 61.9773 12.9267C62.2711 12.9267 62.5468 13.041 62.7544 13.248L62.9702 13.4639L67.026 17.5201C67.2336 17.7278 67.3478 18.0034 67.3478 18.2967C67.3478 18.59 67.2336 18.8657 67.026 19.0732C66.6108 19.4879 65.8875 19.4879 65.4729 19.0732L61.2008 14.8017C60.7729 14.3732 60.7729 13.6764 61.2007 13.248ZM59.6471 16.3553C59.8547 16.1476 60.1309 16.0334 60.4242 16.0334C60.7175 16.0334 60.9932 16.1476 61.2007 16.3553L67.4142 22.5683C67.6218 22.7759 67.736 23.0515 67.736 23.3448C67.736 23.6386 67.6218 23.9143 67.4142 24.1219C66.9996 24.5366 66.2757 24.5366 65.8611 24.1219L63.4447 21.7055L60.4242 18.685C60.4236 18.6844 60.4236 18.6844 60.4231 18.6839L59.6471 17.9084C59.2193 17.4801 59.2193 16.7831 59.6471 16.3553ZM58.094 19.4615C58.3016 19.2545 58.5772 19.1402 58.8711 19.1402C59.1638 19.1402 59.4395 19.2539 59.6465 19.4604L62.6681 22.482L67.4142 27.2287C67.6218 27.4357 67.736 27.7114 67.736 28.0052C67.736 28.2985 67.6218 28.5742 67.4142 28.7818C66.9996 29.1964 66.2757 29.1964 65.8611 28.7818L63.3711 26.2923C63.3711 26.2917 63.3706 26.2912 63.37 26.2906L61.1205 24.0411L58.0945 21.015C57.6662 20.5868 57.6662 19.8899 58.094 19.4615ZM56.219 23.3448C56.219 23.0515 56.3333 22.7758 56.5409 22.5683C56.7485 22.3612 57.0241 22.247 57.3174 22.247C57.6112 22.247 57.8869 22.3612 58.094 22.5683L58.4109 22.8852L62.5952 27.0695C63.0213 27.4978 63.0213 28.1931 62.5935 28.6209C62.1788 29.0356 61.455 29.0361 61.0398 28.6209L56.5409 24.122C56.3333 23.9143 56.219 23.6386 56.219 23.3448Z" fill="#F46188"/>
<path d="M79.2688 22.2628C79.2688 22.5659 79.5143 22.812 79.818 22.812C80.1211 22.812 80.3671 22.5659 80.3671 22.2628C80.3671 18.2933 78.7102 15.9538 77.72 14.5561C77.4312 14.1481 77.0721 13.6406 77.0721 13.4759V9.08237C77.0721 8.77924 76.826 8.5332 76.5229 8.5332C76.2192 8.5332 75.9737 8.77924 75.9737 9.08237V13.4759C75.9737 13.9899 76.3302 14.4941 76.8244 15.191C77.7975 16.5656 79.2688 18.6426 79.2688 22.2628Z" fill="#F46188"/>
<path d="M63.3583 39.2876C63.0551 39.2876 62.8091 39.5336 62.8091 39.8368V40.9352C62.8091 41.2383 63.0551 41.4843 63.3583 41.4843C63.6614 41.4843 63.9074 41.2383 63.9074 40.9352V39.8368C63.9074 39.5336 63.6614 39.2876 63.3583 39.2876Z" fill="#F46188"/>
<path d="M77.9257 22.9041C76.6341 22.043 72.5772 19.6903 72.3751 19.5744C72.0083 19.3915 71.6008 19.4168 71.2284 19.6474C70.4255 20.1434 69.9329 21.5048 69.9329 22.2627C69.9329 23.3177 70.6732 23.9591 71.4574 24.6379C71.7293 24.873 72.0099 25.1168 72.2905 25.3969L75.0365 28.1429C75.2183 28.3252 75.3902 28.4971 75.4138 28.5487C75.4237 28.5795 75.4248 28.6964 75.4248 28.8112C75.2952 29.1583 74.2808 30.3182 73.4076 31.1925L67.3495 36.7008C67.1897 36.8579 66.8525 37.0907 66.6378 37.0907H61.6951C61.0894 37.0907 60.5967 36.5981 60.5967 35.9923C60.5967 35.3865 61.0893 34.8939 61.6951 34.8939H65.5394C66.294 34.8939 66.953 34.2563 67.0261 34.1838L70.8704 30.3395C71.0845 30.1248 71.0845 29.7777 70.8704 29.563C70.6556 29.3482 70.308 29.3482 70.0938 29.563L66.2511 33.4057C66.0913 33.5628 65.7541 33.7956 65.5394 33.7956H61.6951H60.0475C59.4418 33.7956 58.9491 33.303 58.9491 32.6972C58.9491 32.0915 59.4417 31.5988 60.0475 31.5988H64.4411C64.7442 31.5988 64.9902 31.3528 64.9902 31.0496C64.9902 30.7465 64.7442 30.5005 64.4411 30.5005H60.0475H58.4C57.7942 30.5005 57.3016 30.0079 57.3016 29.4021C57.3016 29.1308 57.4009 28.871 57.5811 28.67C57.7837 28.4437 57.7645 28.0966 57.5388 27.894C57.3125 27.6913 56.9654 27.7111 56.7634 27.9368C56.402 28.3399 56.2032 28.8601 56.2032 29.4021C56.2032 30.5345 57.0671 31.4583 58.1687 31.5758C57.971 31.9053 57.8507 32.2859 57.8507 32.6972C57.8507 33.8297 58.7146 34.7534 59.8163 34.8709C59.6186 35.2004 59.4983 35.581 59.4983 35.9923C59.4983 37.2039 60.4836 38.1891 61.695 38.1891H66.6377C67.3923 38.1891 68.0514 37.5515 68.1057 37.4971L74.1655 31.9871C76.5232 29.6294 76.5232 29.0451 76.5232 28.8529C76.5232 28.1241 76.4337 27.9868 75.813 27.3662L73.0671 24.6202C72.759 24.3116 72.4492 24.0442 72.1763 23.8074C71.4239 23.1556 71.0313 22.7909 71.0313 22.2626C71.0313 21.5695 71.6222 20.5563 71.8539 20.5409C71.8956 20.565 76.053 22.9754 77.3167 23.8179C78.7369 24.7646 80.3675 26.2552 80.3675 29.402C80.3675 31.7591 78.514 34.9549 77.2876 37.0692C76.4111 38.58 75.9899 39.3286 75.9899 39.8366V40.935C75.9899 41.2381 76.2359 41.4841 76.5391 41.4841C76.8422 41.4841 77.0882 41.2381 77.0882 40.935V39.8426C77.1108 39.5636 77.7094 38.5311 78.2377 37.6206C79.5997 35.2717 81.4658 32.0551 81.4658 29.402C81.4658 25.6929 79.4453 23.9174 77.9257 22.9041Z" fill="#F46188"/>
<path d="M85.8979 25.1253V30.6155H86.6347V32.5044H82.4937V30.6155H83.6872V18.7529H82.4937V16.864H86.6347V18.7529H85.8979V23.2364H88.0877V18.7529H87.3405V16.864H91.4815V18.7529H90.2983V30.6155H91.4815V32.5044H87.3405V30.6155H88.0877V25.1253H85.8979ZM99.6389 30.6985V32.5044H96.8368V31.5703H96.7952C96.3594 32.2761 95.7712 32.6289 95.0309 32.6289C94.3459 32.6289 93.7855 32.321 93.3496 31.7053C92.9137 31.0825 92.6958 30.273 92.6958 29.2767C92.6958 28.1697 92.9379 27.3186 93.4222 26.7236C93.9066 26.1286 94.5258 25.831 95.28 25.831C95.8958 25.831 96.4147 26.087 96.8368 26.599V24.7205C96.8368 24.001 96.7468 23.5443 96.5669 23.3506C96.3939 23.1499 96.1518 23.0496 95.8404 23.0496C95.197 23.0496 94.8406 23.5166 94.7714 24.4507L92.9656 23.9422C93.104 23.1188 93.4361 22.4823 93.9619 22.0325C94.4878 21.5759 95.1347 21.3475 95.9027 21.3475C96.733 21.3475 97.4214 21.6174 97.968 22.1571C98.5146 22.6898 98.7879 23.4267 98.7879 24.3677V30.6985H99.6389ZM96.8368 30.3561V27.9586C96.5462 27.6196 96.221 27.4501 95.8612 27.4501C95.1209 27.4501 94.7507 28.0382 94.7507 29.2144C94.7507 30.3561 95.1209 30.9269 95.8612 30.9269C96.2141 30.9269 96.5392 30.7366 96.8368 30.3561ZM102.742 32.6289L100.417 23.3195H99.5559V21.5966H103.168V23.3195H102.358L103.635 29.3182H103.676L104.932 23.3195H104.102V21.5966H107.693V23.3195H106.862L104.548 32.6289H102.742ZM112.55 29.2144L114.273 29.8475C114.037 30.7816 113.671 31.5011 113.172 32.0062C112.674 32.5113 112.103 32.7639 111.46 32.7639C110.422 32.7639 109.661 32.3176 109.177 31.425C108.692 30.5256 108.45 29.1003 108.45 27.1491C108.45 25.191 108.692 23.7346 109.177 22.7798C109.661 21.825 110.415 21.3475 111.439 21.3475C112.283 21.3475 112.972 21.7419 113.505 22.5307C114.044 23.3125 114.314 24.4472 114.314 25.9348V27.5954H110.505V28.0624C110.505 29.038 110.581 29.7645 110.734 30.2419C110.886 30.7124 111.142 30.9476 111.502 30.9476C112.103 30.9476 112.453 30.3699 112.55 29.2144ZM110.505 26.0386H112.353V25.0838C112.353 23.7277 112.041 23.0496 111.419 23.0496C111.066 23.0496 110.823 23.2503 110.692 23.6516C110.567 24.0529 110.505 24.6929 110.505 25.5716V26.0386ZM115.601 32.5044V30.6985H116.411V23.4025H115.56V21.5966H118.362V22.4684H118.414C118.863 21.8042 119.413 21.4721 120.064 21.4721C120.638 21.4721 121.088 21.7108 121.413 22.1882C121.745 22.6587 121.911 23.3195 121.911 24.1705V30.6985H122.721V32.5044H119.96V24.4715C119.96 24.0286 119.915 23.7208 119.825 23.5478C119.742 23.3679 119.583 23.2779 119.348 23.2779C119.085 23.2779 118.853 23.3956 118.652 23.6308C118.459 23.8661 118.362 24.0114 118.362 24.0667V30.6985H119.171V32.5044H115.601Z" fill="black"/>
<path d="M0.751321 51.0705H1.75467L3.55247 52.8746L5.35028 51.0705H6.35363V56.0176H5.35028V52.46L3.55247 54.1913L1.75467 52.46V56.0176H0.751321V51.0705ZM7.76212 51.0705H11.9749V51.9504H8.76547V52.9379H11.6078V53.764H8.76547V55.1408H12.0414V56.0176H7.76212V51.0705ZM13.1492 51.0705H14.1525L17.2354 52.6847V51.0705H18.2387V56.0176H17.2354V53.7482L14.1525 52.1434V56.0176H13.1492V51.0705ZM19.6377 51.0705H21.4514C21.981 51.0705 22.441 51.1274 22.8314 51.2414C23.2217 51.3553 23.5446 51.5189 23.7999 51.732C24.0573 51.943 24.2483 52.2004 24.3728 52.5043C24.4994 52.806 24.5627 53.1457 24.5627 53.5234C24.5627 53.8822 24.5005 54.2145 24.376 54.5205C24.2515 54.8243 24.0616 55.0881 23.8062 55.3118C23.5509 55.5333 23.2281 55.7074 22.8377 55.834C22.4473 55.9585 21.9873 56.0207 21.4577 56.0207L19.6377 56.0176V51.0705ZM21.6983 55.1503C21.9979 55.1503 22.2606 55.1123 22.4864 55.0364C22.7122 54.9583 22.9 54.8486 23.0498 54.7072C23.2017 54.5658 23.3156 54.3949 23.3916 54.1945C23.4676 53.994 23.5055 53.7703 23.5055 53.5234C23.5055 53.2808 23.4676 53.0624 23.3916 52.8683C23.3156 52.672 23.2017 52.5064 23.0498 52.3713C22.9 52.2342 22.7122 52.1287 22.4864 52.0548C22.2606 51.981 21.9979 51.944 21.6983 51.944H20.6411V55.1503H21.6983ZM25.4426 51.0705H26.4523V56.0176H25.4426V51.0705ZM27.7279 51.0705H28.7312L31.8141 52.6847V51.0705H32.8174V56.0176H31.8141V53.7482L28.7312 52.1434V56.0176H27.7279V51.0705ZM33.8777 53.4981C33.8777 53.15 33.9431 52.825 34.074 52.5233C34.2048 52.2194 34.3958 51.9556 34.6469 51.732C34.898 51.5083 35.206 51.3321 35.5711 51.2034C35.9382 51.0747 36.3581 51.0103 36.8308 51.0103C37.0017 51.0103 37.1726 51.0198 37.3436 51.0388C37.5166 51.0557 37.6865 51.0831 37.8532 51.1211C38.022 51.1591 38.1855 51.2076 38.3437 51.2667C38.5041 51.3237 38.656 51.3922 38.7995 51.4724L38.3374 52.2321C38.2509 52.1814 38.1528 52.1361 38.0431 52.096C37.9333 52.0538 37.8152 52.0189 37.6886 51.9915C37.5641 51.962 37.4343 51.9398 37.2993 51.925C37.1663 51.9103 37.0323 51.9029 36.8973 51.9029C36.585 51.9029 36.3064 51.943 36.0617 52.0232C35.8169 52.1012 35.6101 52.212 35.4413 52.3555C35.2725 52.4969 35.1438 52.6667 35.0552 52.8651C34.9665 53.0634 34.9222 53.2808 34.9222 53.5171C34.9222 53.7619 34.9686 53.9866 35.0615 54.1913C35.1543 54.396 35.2862 54.5722 35.4571 54.7199C35.6281 54.8676 35.8348 54.9836 36.0775 55.068C36.3202 55.1503 36.5913 55.1915 36.8909 55.1915C37.1294 55.1915 37.3478 55.1651 37.5461 55.1123C37.7445 55.0575 37.9175 54.9805 38.0652 54.8813C38.2129 54.7821 38.3332 54.6629 38.426 54.5236C38.5189 54.3823 38.5801 54.224 38.6096 54.0489H36.8815V53.2228H39.5117V53.2259L39.5149 53.2228C39.5676 53.476 39.5834 53.7228 39.5623 53.9634C39.5433 54.2018 39.4885 54.4276 39.3977 54.6407C39.3091 54.8517 39.1867 55.0459 39.0306 55.2231C38.8744 55.4004 38.6877 55.5534 38.4704 55.6821C38.253 55.8087 38.0061 55.9079 37.7297 55.9796C37.4533 56.0492 37.1505 56.084 36.8213 56.084C36.3613 56.084 35.9488 56.0165 35.5837 55.8815C35.2208 55.7464 34.9127 55.5618 34.6595 55.3276C34.4063 55.0934 34.2122 54.819 34.0771 54.5046C33.9442 54.1902 33.8777 53.8547 33.8777 53.4981ZM42.8477 51.0705H43.8511V52.3618H46.9276V51.0705H47.9341V56.0176H46.9276V53.2196H43.8511V56.0176H42.8477V51.0705ZM49.3395 51.0705H53.5523V51.9504H50.3428V52.9379H53.1851V53.764H50.3428V55.1408H53.6187V56.0176H49.3395V51.0705ZM56.4199 51.0705H57.4834L59.8762 56.0176H58.8222L58.4266 55.1851H55.5368L55.1538 56.0176H54.0967L56.4199 51.0705ZM58.0309 54.359L56.9611 52.1118L55.9198 54.359H58.0309ZM60.6454 51.0705H63.1616C63.5415 51.0705 63.8706 51.1105 64.1492 51.1907C64.4277 51.2688 64.6588 51.3828 64.8423 51.5326C65.0259 51.6824 65.162 51.8649 65.2506 52.0801C65.3414 52.2954 65.3867 52.5391 65.3867 52.8113C65.3867 52.9949 65.3646 53.17 65.3203 53.3367C65.276 53.5013 65.2074 53.6532 65.1145 53.7925C65.0238 53.9317 64.9088 54.0562 64.7695 54.166C64.6303 54.2736 64.4667 54.3633 64.2789 54.435L65.3551 56.0176H64.127L63.1965 54.6123H63.168L61.6487 54.6091V56.0176H60.6454V51.0705ZM63.187 53.7418C63.3769 53.7418 63.5425 53.7197 63.6839 53.6754C63.8274 53.6311 63.9466 53.5688 64.0416 53.4886C64.1386 53.4084 64.2104 53.3114 64.2568 53.1974C64.3053 53.0814 64.3296 52.9527 64.3296 52.8113C64.3296 52.5349 64.2346 52.3217 64.0447 52.1719C63.8548 52.02 63.5689 51.944 63.187 51.944H61.6487V53.7418H63.187ZM68.0676 51.9504H66.2413V51.0705H70.8973V51.9504H69.071V56.0176H68.0676V51.9504ZM72.2013 54.5458C72.3807 54.6471 72.5621 54.7389 72.7457 54.8212C72.9314 54.9013 73.1234 54.9699 73.3218 55.0269C73.5201 55.0818 73.728 55.124 73.9453 55.1535C74.1647 55.183 74.3979 55.1978 74.6448 55.1978C74.9423 55.1978 75.1955 55.1788 75.4044 55.1408C75.6133 55.1007 75.7832 55.0469 75.914 54.9794C76.047 54.9098 76.143 54.8275 76.202 54.7325C76.2632 54.6376 76.2938 54.5342 76.2938 54.4223C76.2938 54.243 76.2189 54.1016 76.0691 53.9982C75.9193 53.8927 75.6882 53.84 75.3759 53.84C75.2388 53.84 75.0942 53.8495 74.9423 53.8684C74.7904 53.8853 74.6364 53.9043 74.4802 53.9254C74.3262 53.9465 74.1732 53.9666 74.0213 53.9856C73.8714 54.0024 73.7301 54.0109 73.5971 54.0109C73.3756 54.0109 73.1625 53.9824 72.9578 53.9254C72.7552 53.8684 72.5748 53.783 72.4165 53.669C72.2604 53.5551 72.1359 53.4127 72.043 53.2417C71.9502 53.0708 71.9038 52.8714 71.9038 52.6435C71.9038 52.5085 71.9217 52.3745 71.9576 52.2416C71.9956 52.1086 72.0547 51.982 72.1348 51.8617C72.2171 51.7394 72.3226 51.6265 72.4513 51.5231C72.5801 51.4176 72.7352 51.3268 72.9166 51.2509C73.1002 51.1749 73.3112 51.1158 73.5497 51.0736C73.7902 51.0293 74.0635 51.0072 74.3694 51.0072C74.591 51.0072 74.8136 51.0198 75.0373 51.0451C75.2609 51.0683 75.4783 51.1021 75.6893 51.1464C75.9024 51.1907 76.1071 51.2445 76.3033 51.3078C76.4996 51.369 76.6821 51.4376 76.8509 51.5136L76.4109 52.3239C76.2717 52.2627 76.1219 52.2067 75.9615 52.1561C75.8011 52.1033 75.6334 52.058 75.4582 52.02C75.2831 51.982 75.1016 51.9525 74.9138 51.9314C74.7281 51.9082 74.5382 51.8966 74.3441 51.8966C74.0677 51.8966 73.8398 51.9166 73.6604 51.9567C73.4832 51.9968 73.3418 52.0485 73.2363 52.1118C73.1308 52.173 73.0569 52.2426 73.0147 52.3207C72.9747 52.3967 72.9546 52.4726 72.9546 52.5486C72.9546 52.6963 73.0211 52.8176 73.154 52.9126C73.2869 53.0054 73.4895 53.0518 73.7617 53.0518C73.8714 53.0518 73.997 53.0445 74.1384 53.0297C74.2819 53.0128 74.4317 52.9949 74.5878 52.9759C74.7461 52.9569 74.9064 52.94 75.0689 52.9252C75.2335 52.9084 75.3928 52.8999 75.5469 52.8999C75.8381 52.8999 76.0955 52.9326 76.3192 52.998C76.5449 53.0634 76.7338 53.1573 76.8857 53.2797C77.0376 53.4 77.1526 53.5467 77.2307 53.7197C77.3088 53.8906 77.3478 54.0826 77.3478 54.2957C77.3478 54.5806 77.2814 54.8349 77.1484 55.0585C77.0176 55.2801 76.8298 55.4679 76.585 55.6219C76.3424 55.7739 76.0491 55.8899 75.7051 55.9701C75.3612 56.0482 74.9782 56.0872 74.5562 56.0872C74.2776 56.0872 74.0054 56.0693 73.7396 56.0334C73.4737 55.9996 73.2184 55.9511 72.9736 55.8878C72.7309 55.8224 72.4988 55.7454 72.2773 55.6568C72.0578 55.566 71.8542 55.4668 71.6664 55.3592L72.2013 54.5458ZM78.3543 55.4668C78.3543 55.3824 78.3723 55.3033 78.4082 55.2295C78.444 55.1556 78.4936 55.0912 78.5569 55.0364C78.6223 54.9794 78.7004 54.9351 78.7911 54.9034C78.884 54.8718 78.9874 54.856 79.1013 54.856C79.2237 54.856 79.3355 54.876 79.4368 54.9161C79.5402 54.9541 79.6288 55.01 79.7027 55.0839C79.7765 55.1577 79.8335 55.2484 79.8736 55.3561C79.9158 55.4616 79.9369 55.5808 79.9369 55.7137C79.9369 56.0134 79.8335 56.3003 79.6267 56.5746C79.4221 56.8511 79.1235 57.0958 78.731 57.309L78.3512 56.7709C78.4546 56.716 78.5453 56.6612 78.6234 56.6063C78.7015 56.5535 78.77 56.4997 78.8291 56.4449C78.8882 56.39 78.9388 56.333 78.981 56.274C79.0254 56.2149 79.0644 56.1516 79.0982 56.084C78.9863 56.084 78.884 56.0672 78.7911 56.0334C78.7004 56.0018 78.6223 55.9585 78.5569 55.9036C78.4915 55.8488 78.4409 55.7844 78.405 55.7106C78.3712 55.6346 78.3543 55.5534 78.3543 55.4668ZM83.3205 51.0705H85.9634C86.2862 51.0705 86.5668 51.1053 86.8053 51.1749C87.0458 51.2424 87.2452 51.3363 87.4035 51.4566C87.5618 51.5769 87.6789 51.7204 87.7548 51.8871C87.8329 52.0517 87.8719 52.23 87.8719 52.422C87.8719 52.7364 87.7728 53.0117 87.5744 53.2481C87.8023 53.3831 87.9722 53.5583 88.084 53.7735C88.1958 53.9887 88.2518 54.2335 88.2518 54.5078C88.2518 54.7378 88.2127 54.9456 88.1346 55.1313C88.0587 55.317 87.9416 55.4763 87.7833 55.6093C87.6272 55.7401 87.4288 55.8414 87.1883 55.9131C86.9498 55.9828 86.6681 56.0176 86.3432 56.0176H83.3205V51.0705ZM86.3495 52.9695C86.436 52.9695 86.5204 52.9727 86.6027 52.979C86.7441 52.844 86.8148 52.69 86.8148 52.5169C86.8148 52.3376 86.7441 52.1994 86.6027 52.1023C86.4634 52.0031 86.2588 51.9535 85.9887 51.9535H84.3238V52.9695H86.3495ZM86.3685 55.144C86.6386 55.144 86.8433 55.086 86.9825 54.9699C87.1239 54.8539 87.1946 54.6903 87.1946 54.4793C87.1946 54.2683 87.1239 54.1037 86.9825 53.9856C86.8433 53.8674 86.6386 53.8083 86.3685 53.8083H84.3238V55.144H86.3685ZM89.0842 51.0705H90.0875V53.7956C90.0875 54.0193 90.1181 54.2187 90.1793 54.3939C90.2405 54.5669 90.3313 54.7135 90.4515 54.8338C90.5739 54.9541 90.7248 55.0459 90.9041 55.1092C91.0835 55.1704 91.2924 55.201 91.5308 55.201C91.7672 55.201 91.975 55.1704 92.1544 55.1092C92.3358 55.0459 92.4867 54.9541 92.607 54.8338C92.7294 54.7135 92.8212 54.5669 92.8824 54.3939C92.9436 54.2187 92.9741 54.0193 92.9741 53.7956V51.0705H93.9775V53.9159C93.9775 54.2409 93.9226 54.5363 93.8129 54.8022C93.7032 55.068 93.5439 55.2959 93.335 55.4858C93.1261 55.6757 92.8697 55.8224 92.5658 55.9258C92.2641 56.0292 91.9191 56.0809 91.5308 56.0809C91.1426 56.0809 90.7965 56.0292 90.4927 55.9258C90.1909 55.8224 89.9356 55.6757 89.7267 55.4858C89.5178 55.2959 89.3585 55.068 89.2488 54.8022C89.139 54.5363 89.0842 54.2409 89.0842 53.9159V51.0705ZM95.0758 51.0705H96.0855V56.0176H95.0758V51.0705ZM97.3674 51.0705H98.3707V55.1377H101.248V56.0176H97.3674V51.0705ZM102.223 51.0705H104.036C104.566 51.0705 105.026 51.1274 105.416 51.2414C105.807 51.3553 106.13 51.5189 106.385 51.732C106.642 51.943 106.833 52.2004 106.958 52.5043C107.084 52.806 107.148 53.1457 107.148 53.5234C107.148 53.8822 107.085 54.2145 106.961 54.5205C106.836 54.8243 106.647 55.0881 106.391 55.3118C106.136 55.5333 105.813 55.7074 105.423 55.834C105.032 55.9585 104.572 56.0207 104.043 56.0207L102.223 56.0176V51.0705ZM104.283 55.1503C104.583 55.1503 104.846 55.1123 105.071 55.0364C105.297 54.9583 105.485 54.8486 105.635 54.7072C105.787 54.5658 105.901 54.3949 105.977 54.1945C106.053 53.994 106.091 53.7703 106.091 53.5234C106.091 53.2808 106.053 53.0624 105.977 52.8683C105.901 52.672 105.787 52.5064 105.635 52.3713C105.485 52.2342 105.297 52.1287 105.071 52.0548C104.846 51.981 104.583 51.944 104.283 51.944H103.226V55.1503H104.283ZM108.028 51.0705H109.037V56.0176H108.028V51.0705ZM110.313 51.0705H111.316L114.399 52.6847V51.0705H115.402V56.0176H114.399V53.7482L111.316 52.1434V56.0176H110.313V51.0705ZM116.463 53.4981C116.463 53.15 116.528 52.825 116.659 52.5233C116.79 52.2194 116.981 51.9556 117.232 51.732C117.483 51.5083 117.791 51.3321 118.156 51.2034C118.523 51.0747 118.943 51.0103 119.416 51.0103C119.587 51.0103 119.758 51.0198 119.929 51.0388C120.102 51.0557 120.271 51.0831 120.438 51.1211C120.607 51.1591 120.77 51.2076 120.929 51.2667C121.089 51.3237 121.241 51.3922 121.384 51.4724L120.922 52.2321C120.836 52.1814 120.738 52.1361 120.628 52.096C120.518 52.0538 120.4 52.0189 120.274 51.9915C120.149 51.962 120.019 51.9398 119.884 51.925C119.751 51.9103 119.617 51.9029 119.482 51.9029C119.17 51.9029 118.891 51.943 118.647 52.0232C118.402 52.1012 118.195 52.212 118.026 52.3555C117.857 52.4969 117.729 52.6667 117.64 52.8651C117.552 53.0634 117.507 53.2808 117.507 53.5171C117.507 53.7619 117.554 53.9866 117.646 54.1913C117.739 54.396 117.871 54.5722 118.042 54.7199C118.213 54.8676 118.42 54.9836 118.662 55.068C118.905 55.1503 119.176 55.1915 119.476 55.1915C119.714 55.1915 119.933 55.1651 120.131 55.1123C120.329 55.0575 120.502 54.9805 120.65 54.8813C120.798 54.7821 120.918 54.6629 121.011 54.5236C121.104 54.3823 121.165 54.224 121.195 54.0489H119.466V53.2228H122.097V53.2259L122.1 53.2228C122.153 53.476 122.168 53.7228 122.147 53.9634C122.128 54.2018 122.073 54.4276 121.983 54.6407C121.894 54.8517 121.772 55.0459 121.616 55.2231C121.459 55.4004 121.273 55.5534 121.055 55.6821C120.838 55.8087 120.591 55.9079 120.315 55.9796C120.038 56.0492 119.735 56.084 119.406 56.084C118.946 56.084 118.534 56.0165 118.169 55.8815C117.806 55.7464 117.498 55.5618 117.244 55.3276C116.991 55.0934 116.797 54.819 116.662 54.5046C116.529 54.1902 116.463 53.8547 116.463 53.4981ZM125.433 51.0705H126.436V52.3618H129.513V51.0705H130.519V56.0176H129.513V53.2196H126.436V56.0176H125.433V51.0705ZM131.633 53.5298C131.633 53.1563 131.702 52.8145 131.839 52.5043C131.976 52.1941 132.168 51.9282 132.415 51.7067C132.664 51.483 132.962 51.31 133.308 51.1876C133.656 51.0652 134.041 51.004 134.463 51.004C134.883 51.004 135.267 51.0652 135.615 51.1876C135.963 51.31 136.261 51.483 136.508 51.7067C136.757 51.9282 136.95 52.1941 137.087 52.5043C137.224 52.8145 137.293 53.1563 137.293 53.5298C137.293 53.9054 137.224 54.2504 137.087 54.5648C136.95 54.8771 136.757 55.1461 136.508 55.3719C136.261 55.5977 135.963 55.7739 135.615 55.9005C135.267 56.025 134.883 56.0872 134.463 56.0872C134.041 56.0872 133.656 56.025 133.308 55.9005C132.962 55.7739 132.664 55.5977 132.415 55.3719C132.168 55.1461 131.976 54.8771 131.839 54.5648C131.702 54.2504 131.633 53.9054 131.633 53.5298ZM132.637 53.5298C132.637 53.7851 132.682 54.0151 132.773 54.2198C132.866 54.4245 132.993 54.5996 133.156 54.7452C133.32 54.8887 133.513 54.9995 133.735 55.0775C133.959 55.1556 134.201 55.1946 134.463 55.1946C134.725 55.1946 134.966 55.1556 135.188 55.0775C135.411 54.9995 135.604 54.8887 135.767 54.7452C135.929 54.5996 136.057 54.4245 136.15 54.2198C136.243 54.0151 136.289 53.7851 136.289 53.5298C136.289 53.2745 136.243 53.0455 136.15 52.8429C136.057 52.6404 135.929 52.4695 135.767 52.3302C135.604 52.1888 135.411 52.0812 135.188 52.0073C134.966 51.9335 134.725 51.8966 134.463 51.8966C134.201 51.8966 133.959 51.9335 133.735 52.0073C133.513 52.0812 133.32 52.1888 133.156 52.3302C132.993 52.4695 132.866 52.6404 132.773 52.8429C132.682 53.0455 132.637 53.2745 132.637 53.5298ZM138.407 51.0705H141.015C141.395 51.0705 141.724 51.1116 142.002 51.1939C142.281 51.2762 142.512 51.3954 142.695 51.5516C142.879 51.7056 143.015 51.8944 143.104 52.1181C143.194 52.3418 143.24 52.5939 143.24 52.8746C143.24 53.1384 143.195 53.3821 143.107 53.6057C143.018 53.8294 142.882 54.0235 142.699 54.1881C142.517 54.3506 142.287 54.4783 142.009 54.5711C141.73 54.6618 141.401 54.7072 141.021 54.7072L139.41 54.704V56.0176H138.407V51.0705ZM141.04 53.8368C141.23 53.8368 141.396 53.8146 141.537 53.7703C141.68 53.7239 141.8 53.6595 141.895 53.5773C141.992 53.4928 142.063 53.3916 142.11 53.2734C142.158 53.1531 142.183 53.0202 142.183 52.8746C142.183 52.5813 142.087 52.3534 141.895 52.1909C141.705 52.0263 141.42 51.944 141.04 51.944H139.41V53.8368H141.04ZM144.338 51.0705H148.551V51.9504H145.341V52.9379H148.184V53.764H145.341V55.1408H148.617V56.0176H144.338V51.0705Z" fill="#642AB6"/>
</svg>
