<svg width="180" height="145" viewBox="0 0 180 145" fill="none" xmlns="http://www.w3.org/2000/svg">
<path d="M74.8443 16.584C85.0987 16.583 95.1435 18.9231 103.815 23.3333C112.486 27.7434 119.429 34.0431 123.839 41.5022C128.249 48.9614 129.945 57.2747 128.732 65.4788C127.518 73.6829 123.444 81.442 116.981 87.857L153.655 117.406C154.662 118.212 155.253 119.295 155.308 120.438C155.363 121.581 154.879 122.698 153.953 123.565C153.027 124.432 151.728 124.984 150.318 125.11C148.907 125.236 147.489 124.927 146.35 124.244L145.722 123.804L109.041 94.2552C102.296 98.6642 94.3369 101.704 85.8316 103.12C77.3263 104.536 68.5234 104.286 60.1628 102.392C51.8021 100.497 44.128 97.0137 37.7853 92.2334C31.4427 87.4531 26.6167 81.516 23.7132 74.9209C20.8096 68.3259 19.9131 61.2656 21.0992 54.3335C22.2853 47.4013 25.5192 40.7999 30.5292 35.0838C35.5392 29.3678 42.1789 24.7042 49.8902 21.485C57.6016 18.2658 66.1594 16.5851 74.8443 16.584ZM74.8443 25.6296C69.1929 25.6296 63.5967 26.5264 58.3755 28.269C53.1542 30.0116 48.41 32.5657 44.4138 35.7855C40.4176 39.0054 37.2477 42.8279 35.085 47.0348C32.9222 51.2417 31.8091 55.7507 31.8091 60.3042C31.8091 64.8578 32.9222 69.3667 35.085 73.5736C37.2477 77.7806 40.4176 81.6031 44.4138 84.8229C48.41 88.0428 53.1542 90.5969 58.3755 92.3394C63.5967 94.082 69.1929 94.9789 74.8443 94.9789C86.258 94.9789 97.2042 91.3257 105.275 84.8229C113.346 78.3202 117.88 69.5005 117.88 60.3042C117.88 51.1079 113.346 42.2883 105.275 35.7855C97.2042 29.2828 86.258 25.6296 74.8443 25.6296Z" fill="#181818"/>
<g clip-path="url(#clip0_2341_3446)">
<path d="M74.0948 44.5083C63.7585 44.5083 55.3838 51.256 55.3838 59.5842C55.3838 67.9125 63.7585 74.6602 74.0948 74.6602C84.4311 74.6602 92.8057 67.9125 92.8057 59.5842C92.8057 51.256 84.4311 44.5083 74.0948 44.5083ZM80.1306 54.721C81.466 54.721 82.5449 55.5903 82.5449 56.6663C82.5449 57.7423 81.466 58.6116 80.1306 58.6116C78.7951 58.6116 77.7162 57.7423 77.7162 56.6663C77.7162 55.5903 78.7951 54.721 80.1306 54.721ZM66.8518 69.3107C64.8524 69.3107 63.2303 68.0341 63.2303 66.4535C63.2303 65.2377 65.3806 62.7818 66.3689 61.7241C66.6104 61.4627 67.0932 61.4627 67.3347 61.7241C68.323 62.7818 70.4733 65.2377 70.4733 66.4535C70.4733 68.0341 68.8512 69.3107 66.8518 69.3107ZM68.059 58.6116C66.7235 58.6116 65.6446 57.7423 65.6446 56.6663C65.6446 55.5903 66.7235 54.721 68.059 54.721C69.3944 54.721 70.4733 55.5903 70.4733 56.6663C70.4733 57.7423 69.3944 58.6116 68.059 58.6116ZM80.9001 67.9854C79.2101 66.3563 76.7279 65.4201 74.0948 65.4201C72.4953 65.4201 72.4953 63.4748 74.0948 63.4748C77.4446 63.4748 80.6059 64.6663 82.7486 66.7453C83.7898 67.7423 81.9036 68.9642 80.9001 67.9854Z" fill="#181818"/>
</g>
<defs>
<clipPath id="clip0_2341_3446">
<rect width="37.4219" height="31.1245" fill="white" transform="translate(55.3838 44.022)"/>
</clipPath>
</defs>
</svg>
